<mxfile host="65bd71144e">
    <diagram id="wD5f3ocYH407AcOmlyfa" name="Page-1">
        <mxGraphModel dx="606" dy="611" grid="1" gridSize="10" guides="1" tooltips="1" connect="1" arrows="1" fold="1" page="1" pageScale="1" pageWidth="827" pageHeight="1169" math="0" shadow="0">
            <root>
                <mxCell id="0"/>
                <mxCell id="1" parent="0"/>
                <mxCell id="2" value="http://ics2o.mths.ca" style="swimlane;whiteSpace=wrap;html=1;" vertex="1" parent="1">
                    <mxGeometry y="50" width="760" height="480" as="geometry"/>
                </mxCell>
                <mxCell id="3" value="Random dog API&amp;nbsp;&amp;nbsp;" style="rounded=0;whiteSpace=wrap;html=1;fillColor=#0050ef;fontColor=#ffffff;strokeColor=#001DBC;" vertex="1" parent="2">
                    <mxGeometry y="20" width="760" height="60" as="geometry"/>
                </mxCell>
                <mxCell id="4" value="" style="rounded=0;whiteSpace=wrap;html=1;fillColor=#FFFFFF;strokeColor=#23445d;" vertex="1" parent="2">
                    <mxGeometry y="90" width="760" height="400" as="geometry"/>
                </mxCell>
                <mxCell id="7" value="show price" style="rounded=1;whiteSpace=wrap;html=1;fillColor=#FFFFFF;" vertex="1" parent="2">
                    <mxGeometry x="40" y="250" width="120" height="30" as="geometry"/>
                </mxCell>
                <mxCell id="9" value="" style="shape=image;verticalLabelPosition=bottom;labelBackgroundColor=default;verticalAlign=top;aspect=fixed;imageAspect=0;image=data:image/jpeg,/9j/4AAQSkZJRgABAQAAAQABAAD/2wBDAAgGBgcGBQgHBwcJCQgKDBQNDAsLDBkSEw8UHRofHh0aHBwgJC4nICIsIxwcKDcpLDAxNDQ0Hyc5PTgyPC4zNDL/2wBDAQkJCQwLDBgNDRgyIRwhMjIyMjIyMjIyMjIyMjIyMjIyMjIyMjIyMjIyMjIyMjIyMjIyMjIyMjIyMjIyMjIyMjL/wgARCAGQAfQDASIAAhEBAxEB/8QAGwAAAgMBAQEAAAAAAAAAAAAAAQIAAwQFBgf/xAAZAQEBAQEBAQAAAAAAAAAAAAAAAQIDBAX/2gAMAwEAAhADEAAAAfXsj+fsltbjIy0xEgFHFZTVdtUlaKRqrKyWVWggIpDEkhDICNABgKRAVsZVvqsTPh24JVjSVIJYxRhAZSkSySQLo4JISAkkhIISGHcKsArEtRkowSUPW6BkNSi5Jar898FWWhbSYsldtIYSEQkjAMCESKjKwpElJBKeb0MMFSsqq4sVlNAgigywSQLKwCCSCUZASQwJId2Qix1HRqrHKtCsriQLRAEJYpV40EW0FdgIrKQsCBgSERIrIocMVPDKA4TPi2YZQGWWKy2LAaYQABlkBgYIGQBINAggkgIZHdKgsrsRHV0qAyIUIgkpCjyspwHRzeN4up9P1fOfXx1jJKjAkaQV1YhhRA0VS1YStObpmGqW7CK5bRGsWAWAQ2AiVAYAiBBAZIEg2QSSwyWCSHcIkrKwR0sSlDLCWVuIGFUulstHzj03iN4jZ7+nPR6nxV2dfXNHle3x7bjy683sHhpm9scRDtU8ts3alDWNVq0Jy52rLOFp62jefH3djnZ1S5rxt4h3IZN4EgogwgMAZCAlBIakhUGRJJDulWiSVrdXVlN68+nOuseFXL36+BVL3aONXHA5pv8AZ5cuhrU5afQ+LLx/bcDocunUs7FuLyLOq28859s1MGurTYQyDlHAgWUXpcg43b4tKlwzrKmtee8p00c9iLNRgZ0ypkJIAySwyAMkDISQQlbV8eiVbL9Tj1ejezyzest3nyl3pjrHAs7i6nN5np/HnjtmTTvKNEPqermdfFor1KqWV2RGJpY6mXTVfBrtrooRCXi0QkUnH7PFzblcRU9gq/Nsx1mo6lXPXPF1XHqYBo4k6YkkskkIQSFWUQw9CGHXiVNYKmYDSAaEkhK/D+18GvBuyX6zfh3cs977H5r7/N2rahUuhZRl2cqXBVjx+b1+p3eL6msepmfd6PLnYlYbYiF6qXj24s3uHn5lv5nPw8PT2U5Rxv1ejkdf0eVKtE3jm0dirnvmyJx63RJTkHpgQioytBklehMnXildgEjADBhCSGm/NWPwve8bGa6iamrNe8U9/jGX6V0vktsv0ro/H9R9Y835nZjomqjT5vY1OkJZ6TyerfLtXeZf1eT2R8mD1nDHmpepo8VtPSYuXt8/ql6zHU49FNl3o/Ner6cCHHfzqtkXnu7YuDJ2UzvmNK+PTTM7VaXnTCySvSmwd+GZg0qI6wGFJomC0v8AnXQ8sVApZCYNKULyHCqqG7NaXel8n6vh6L2Svn32S2nrzULPP24eDu8T1eNqaaunLoDKhLn1L0d2fT4voMLK+vJVrttt7fI7nJuDL6/GYYY2sXOq2YnP0VXRmxdY51wtd/P49dU50zr36MPf46JBmhE4mdbPL5eKXHJXrD1KauFTihqhyrECKM9LDmuD+t8n0MdPUroxeX2XWkejk2JsXHo/C2czt5y9mrtwoz9Gg5420HV3+U6nD0+hs4vdtoo0VY3v7PK25x1hJ6fM6sgotGbVXfUY7SJbFcUhcgl01Nq0PcpTo5udc7zHQ43Ptlzvn7edBJUjORGqiWFBlRhZJQDQjNBt2FJfoWDDt8ft3Zjye/PXwX1a5cfaurfIwZq035yE0uZqtUiq7HXNeps4G7l39F2eL6SYvVx25Sm6qVoDEVgZ3WxQGJXGA8MssASyzDdml8n5/s8GWtHHTFS3ArjwLrIVHgA4K44pGMHY2Ge2vZGjTjbOruf1uWtbtdvBLwrejUPTdSSFg0aAYEvynSu5ncxrv+i5mzl02NmbpzYB1AdLESyqVbariQGySQePLOfDVz21GgHi+H6ny2pWhbeEFpqllrixlgVNY0jUimQLBdVi2VlOmq4t7fG9FnXlU7XDR9WTbqWzS8c5rTLFC6lxXTjdWjotnXC5Xf5e8Uet876/lvfqxaM12rs3LHqayyVtY2cwsLixRYgIYXQy5xKRjpUtlcZvC+2554o7+f15s9VhVVaAFGFR1CoepYrCXo5fRppK76yavR+W9BjejzHsOLy6cLZb0O3JtxrxujH0K+Po4lenH6PLo63H9Dy7bLOZVjfW5WsdOXI9Pyurjb7/ADPpd8rWspGNYi+uuyhpSalxqeyypzZWRcSCazhBHLoEaGPLuoloy6xrPDxetGp4nL73hWeZGmmxA4FKmmWIWWUMdOoVjkOXd3zvXxr0HnvR8bz+mizZfvOevmcfpz7tvP0S0UWWXNWxK10YdfO3jT3uN6Dj2w7+dbz3ye5g6nXl6CzldOSJYtkKiWwJCx6ZZfKHrRajbyseJzIJz6MshRXfTCV2wz2NXT5dNms+V4nvcOs+IHb41lS2CgRBrM7F9uXQNdVaLtymPWX4N3m9PK6fM6U1yMPT5fbilvRs1jEtkmhcLzPz/TZSjolPP6MxV6L3DfOvqcq2O+cOrWbQYghIIIPFlhsqatEyyymGY0oYCV3VCspsJWWBLASIbF4veOp8/wCZ9Qy2fNh6viHPOnPQKWDasdpquy9iF9Dw+vz6DLrycPR0ODdr1BbqTWeZLce8aFsQ6SDPz6tUJz2+zLpq1akxvW+B7Ohr5evXPfZi2b5PKzrLyEIMqERDJKzBhmqHMtcclS3IIynUdRLDWyila4sANBWhVRtlnBxesXWfD4voXn7OL6jy2mX0Fnkb5fZcrkaefXX0snV4d6Of0OP1515ak7cOvhWiztzD1OHofFu5/Ltp08/aKliZ3ktS3WbdWOZvRs5tmsd6zh7N8tz5rdYuldmslg1gklZ5DnUBBJAFVWGDwrWw2UR4IHlZjoqiGq2gxlihwgz6ORXlWso3hILiy06M7v7Hn9nHv1uJ0skvJt2Ze/nJFus19Kk8e+zll+XXbbTfKqa88uZLIojvnWVHeg0SNezm2p3b+Dv6cd1qr142yuIhsNtceCNJYarWM00U51JLEoW9SqMtAWSymrSsU2CsuKmhzeoLPLY/Sc+zyOntcbWd74teddGtNfPrmmrnzXV850LtYwTRdZpwVasdKrrLOPcaa5nWtc16DP0W1jmL1adTFXqwzV4iyx059z1Wd5ep0eB3uvBoZ05UAxZJCGQjLBwGKRoqlkreAltdKrxKy0pFsBQbK4ayiyiwKVraoKtAXLR0VxrmV9lc74Z6eaazuDneaymyad3szedc1iw5NkWUAaz1r6b+/mTNpFnJwelkvieh6V68r1Ou+aLQdYeLLBIagYBkgQYKWJDIJXekqxZCxhSwMLIbEDgSq8QphqFzZSLyZTpqhQLFVXMI0UzJtmN0VbSvKXsHOuAPQNrPLv2kRzLmKYIXlVywCC6CPAGVwtLjWQRBmpkWBYrqYAEQYYRSarFqQKdAKJaaqaGxiLNZUFZUciDFNCMxRTsEZTasojxRAYJUq0EASQQuIxQIgGAgYGCCwgtNmeaIVGQBLCyAhJADIBMFkgIwAVA8UDIxEFhKo6WPZU2o8iD0sJWlULAGFS0FUuEtZeFTOsM1bKYbEql5qiWqKRAlBZYEI6gkBgJIf//EACsQAAICAQMDAwQDAQEBAAAAAAECABEDEBIhBCAxEyJBBRQwMiMzQEIVQ//aAAgBAQABBQLQwd3zoYOwxe/40+dPifLQNrn/AKhPntP+EaGD8JgbsMGh7fjvEabeKgnUf1KePn/QYNfjtMIg86HU9nz8dw7fnP8A0r/qMXX47TDoNfgNN34zr8afPUf1D8o/MunyNPiHsMHj85nye3P/AF9w7x/g+Rp8Q9hi+O/57z5HmEamdR/V/r+dBBoe5YWCx+pVSmdT+T5g7uo/qHjU/wCUafOnyO4S6jdSiN1X1Nmf18l9PmfI3TuQ35PibhDlQQ9SsPUzJlLRXEv/ADmfOp/AJ1B24+o6g5shgm7026XqRlGPle2xPUWfcJD1Sz7kw9Q5hzZDNz6UIBBgytHDp1G0f6R2HtOnzPqmfZjM+VjNziytibousDj7pIerh6lzPVyGW8504lyshno5IvTNPtRB06CekkFA3M2Lc9clZUsiXf8ApPaZvWHKgh6lBOvz+t1FRlo40OQupUzpsvpZEyo67jAuQwYMpn2zGDpRB06Q41ioO4tBBK4Ye+bYVm0Ge4QEH/GJYhdYc+MQ9Vjn3iz7sw9TkM9XKYSZazdjmTKoxty9RvdOl46hvpi5Uf6S6wfTHM6TFm6TKvI1Oh8jtMqAafDfvKhm2NjIh2tKYAEH/AeoymerkhYwusOXGIeoE9djB67QYOqaDos5n/nXB9OxReiwCfUFTHgX9vgRG25sA/jqbeSgMEr2qONT+w0M+NAJWh8N+9cafFcMgMOMrCQZTCWPzY8eWvssrEfTSYPpuOfYYBB0+JYEUaVKlStPrLQRYRbeH6LJ6mLQjQHtr3do7D+v/X/O2Vp8ZGqD3Kygw4qhYSiBY/wE/h+rfsnEH6/8sZ9Iy3jHI0KwadQfY2fIsPVPMfV7omYOZRhErWpUP646bIuyP6aq2VVmTNz9z7vW3PhbSoygw4IWIglzx+Q6V3mp9W/sUwGMf4zPpmdcY6bKMiytK06k0eoanIillOLNTYc3qaP4XsJmXNS4jwp2jNl3Y8mTgoWi46gGyYX5B0qCZF4bDz6jrFoy6nx/haowQT6ibyeIhjn21FtD0v1F8EwfUsGUeotDrAzqwaCZ293LMqwrKqYcpU9Pk3482anxPc3CXL4bP/I+UNmsJM+SPk4VZQhEbmYWmIezQeXHtqbbj9MDGOXHEKtL2/hrv+HNDqfqOMTLkbM+2ciDmVxxLGgz5VC5Wi9Q4KfU86H1WyqvhdODKqJkKD1d+f7nbE644ov1CsmXqgcWfqA8bqv5c3V7suPKXnyJfJaeZjWsif16fLDitPMcceiHh9XDPaRbLBTwipU2yp/1D3OwROu61uoapxLgIlzdN8EuXARfBgWYl/h+Aa0uxcbkZ/JysFOdyo6hovUNjnqMY0xXuwrtMLUEXeXgnidNZ7G/WfIHJFwcN5j4gYwy4oHVp6jAeoNf+odcmZccXrenYnqsCT6h1/rQtN1zmBZYhaWIDPI2ytB7Zu56Yl+nPGmPbtYXG4l+3IoMyL78vtlXNtwxTuTFtl8ryzvG9o9S54iiYRqI3gDiCXG4YeNMmBHjYcuGesNT+2lgTN1OwZ+uLRnLHeaZ588CXpxOJUrS5cMFzbOhZXxtxLEup+sLWqngm5u3ZMts+3ll9jDjkQMUfDlDEGztBJAaFAAJjPODxoI0E+To8TxKgEI49NG1aXGah1fUADP1RovN03QwXp8eIWuAS5cvQS9Bc6QfzNVXTgibwISEnqLuOWijHdssVtZv1IIQJczJEc36lY+mz3FNzKptAd44OHdegh8w+TK4cGlBrUxR7dwm8RmuF6GbqzM+QksbLdohM8wLN08w9olTpcvodS4G1SoK+8OyWzKQ5jHdOnTmqycFjzHreLGTaNvpyoCwmHN7vuUYYmimzhWca/8AXY0GlStF8cXxpm/R5mPLQ62Iuwlr0qoW0rStRzKl6dD1do6skxZl29ZmDnG+45EQxEo0VLvzzuTxk8G2U2ATCODcoscYalybZgIYYvFQCHu8sdK1Xxrn/XNYLtZhErtoLGN6UTPHYIBc26KN02pFz+35Yc+mwPM5gYhAYntKH3H9l4WjZG0EbmbyPOPbEt2wrUSq0Js9hi+T2r+suXMnjLG861PGvxAAJd6V2KCYeNMXEXkuoisMmPIrBg5E9sXmGtoO2fu3/wBL4HMB4jcTItCC502LdkxJQ8QNN0Gp0bwg08dg8bjq49ucxuzydBybnxthlQ6gQCEVoOFQRsQ6jC+7G+64pitzzRNgAX+j0rF1qclVX2qpYjGJmAjLRXz0iBVXg3oJcvsbk6ee0iG9GFjqcRt/M4rZKjGeYsAlcQCHSudsRdHnzURbfDtM6xdy1BMY3TayDYrxgd9cEzfY3Eqg3REG1kUB8dnLj2RAEXCvCrc8dt6M0Udw8ytKqXHAI6laerniCHha58nT9idDPE8y4PbMdxvKwcTG9Njxgx1j49jciY1qKvFGtsfxzPlGmEcL4umZTMvT4xHxreFgYMh3rzrerPFWDsOijtIjGZ8Ayrl6LKkCmbrlWTKoCXPA8ajQUDxB+hU2BzdtsM6S0XIFnVJDhmJQBarPVbcWuFdwyjazcHHwca/xs8Q2S9QtugxLvxFTh9cetgZWXieJulmUYF0uA6XqOB2GMJ+s4mTpsOSN9NxxumfGfSIZxpWlabTpUXme2L7tPkD3es6HpchaZASuWrUnYBB4KZLbeImT2uNzZVqKm7Euc2R/JmfK2TGpMxr/AB5bvjF0zft0jFWG0yptnjvvQDTb2sJUKy9CoMKCupwijjaVUrW5xL0UwMNsUc/Clg+P1w3G3qPTRsIVkbBjaZFZYE3ZVyBcw8AFYVqIJQWH3R8TqcIiXtanyPv3DGqsgiOLBl9lmXL1HEDd51IucrBplFrk9ofzehlacQcSxpxfmXLKxbK9HlDJnxKwxXiduRkyMr5EQz0AsQlWX+0D3c+onOT7f0jzkbHj2QrwtbsnUYTFRq2ZLIdZhy2L/GGly+w9u0xZRjdOjR+hxNM/QuhIlS5fYItQH2/8beFfJeHA4XcHTayFPcubDUKFZgzNsyhSgX2p7mf98KERsa5pkw7XXGRHegSxVECT22WGicRWMDd1632VK0qVNsoakXLK68TqOiXKcvQ9RjhB7bqAy4D/ABkzHW582TJkwfp1CNMeSozB0t2mHEsyi4fbFoHLRigmIQob3Q7RLDxuJVS1nE3LKBgEQ6bvwWPxbhLuU02mbCIAGm0CVo+DFlmf6WI3Q9Qs+3zLPnSrK6YcHtx4huOTbDuAyY2BGbMBjVngMPh2sCox4RjDtA3Bo2JoBtmNN77RoZcDxcksxXnBlVL/AA3LnMozZNs21oOOwgGb5ulmc6VNoj4Mbxvp3TmH6aIegcR8Zxzp1DZDlTac+HCMWYuNy5IxAINxFhsHJYmZiFxElsrUiNyLaAzd7WPGPgNoYTB4BqBp5ittgyA6eJfdUqVpcvTzONam0yoQJ+sBBly55lSpU2yp12Ikge/eFBPIzNWF6C5VMQpFra2+8xaB/VABUu1rjDFsDt6nLNtmTiYmaedDCOdLivR9QQZOFzT1BBRniX312XpxpuPaVm7StfMqVM39V+66h8ASopMR1WY3UjIWCtcRQrcO5FBQIg94/jLeMgO5SdonNmfPzcqGAzmbormLliZN2lwdxlwnnzKhGhod1XOV7eYZ1WQuhxm2DCCXcUcniHGVmHIqltuSVU9KloK23JNikYU4Z4z2UozmC5UfiFg0FQaEcXxBOBOBN0xZtKm7TmUZtM2zaNCutSpU8aVpU4lVAe3PhLA4DM+AqDRm6KBs/aKoyJ8+qUibSSAy7yuT1jMROXK228hFqm2A8IKgaWKqekphxG/E3gw+K5YETxCwivDA5mDLulStOJcvUaFbnicDS9RzNsrSoVl1pcuEBpk6e4emcTIqx8XuGPKRteY29NgFtkuMj4yrxsyuvppZdlQlmZMO01AOf1gPFG18ixCyz0QQel4GNqY7WD7gSJ7NuMsMuJWePjmPE25Tx+LzCK0HOhOnHZUqVUGvzCtwIi6HGGhwCHBPTebGMyYbCY1EVlBY2B5HBCkQiHyOItMBuimN+2IUNMuFco+zoZekylW6PMhTFkQb+tJxBjFFaV+SpzqZXftl91aXLnuhuMjQoZ6Fk4XEZSrBrM+CPcRCaivvEpnmK9liXpzKM2iUNR+W9NtzxrYs9taUDKqA91GCVr5lSo/ThoOloeitehDjYHcKye+Y1KrTGLiaemJtHdUrQfjqVK0sQ0dLnmXU3d3GmzTZNlSpUqFO3dLlzme6bZslStb0rSpUrSu+pUqVpYly5Z1rsqbYV42zbKlSpU2ypVyisFHSpxLEPIIYSiZtm0ShPHfWlfiuXpUuXLlmc/l8Suwy9KhliczadNolCVpUIl3KhHfz+DdpRm0zbNo/JX4q08TcJununulXKHYRc5Wee3zpzOdL047qm2bRNonGnEuX+Ovw2JuE5num0zYJVaeIRKPZuE3CXORLvSu2pU2ypUqAAyhK040uX+L/xAAmEQACAgEDBAIDAQEAAAAAAAAAAQIREgMQMBMgIUAxUTJBUCJh/9oACAEDAQE/AfTX8BfwF6uSRfDizF+pJ7J0JWYMwMTFFwOpFHVHqSI6r/Z/ljjypMwZ02YGMRu3tRCbidRmci33LZTZakY8OcTrI6zHqszZb5l2KbRkpGP16a+RQTRLR+h+Nr2RVkdL7FppE1T2U2ZJmP16OmrkN0WaunkrW1FbaMf2Nika689im0KaZj9c+h+RMjJiNWNPdfIlSJsga/49yk0KafyYx3SsdLh05VIl5PNlmtK+yOr4Lsia3FEn4VLiToUlNWSdEpX3KVEdQm9lwIm+OMqJPgirJFcUuNDW1FbRjY4UNEEPjfHElDwYkDFEkaRqKxREqG+SiuGL87UOdEdUbsjKiTbNNeBlDXrRZROO1FEYiQyjHvrgrviz/qH5K8k2RfkSEirMTEcBquKt6KKKK3yIT8kns/naD8F+CPY0PTHF+mhO9pMTIvwfKEmX2tEtP63vnREaHGxaRjYlW1DM0JlmfkbNT0lIzEWiy92P52yZdIUq9O+zJmTOozMyf8ay/Rorvsvv/8QAJxEAAgIABgMBAQACAwAAAAAAAAECEQMQEiEwMRMgQFFBIiMyUGH/2gAIAQIBAT8B+OXxvlf/AED+XSzrgs1o1J/JFZNWN12a4nlR5TySfR/sZ45vs8H6xYESeD+Fyj2KafLaNaPIjyGtiWwyzEw1M8ERYUDSl/PZ5PCX8KlEU+FRxGeFngFgxPHE0rmfpLDT6KlEU/3430OTRHF/Rb5VkzVQ8Rvoc2yDtZSw0zTKIp/vw4j/AMRKyjDnpdPKy8sR/wAEONGE/RwTHBx6FP8AS+bG6MMnFdkl/TDlaKKH0N72YS/piGD/AMvZxTHhtdGuWbdC34cSNohsOqNJhRr0lhi2MQweJkN93xNWU4Ohbij7USgQ7yfAyK42rEuCTpES+KPGxZWXlJ0KVlmIxca45EZblkjUxMxCGw5EnYllZeV+9l8MlsIsUbHhi2GrEkjEYhi+aS32LIyzschsRZZftfpZeV8E0f8AjFsWRRJDGzossTE+JMsssssssvLSThsJZLKaKJeqmJ/GxqskrGh9nQ37xn+50VzMkJilQ8QuhvNM0lFGjYoh71xtGn3SF0WUjtjjfxUV6aUUjQaDSuKy/qoor4bL9qKK9//EADkQAAECBAQEBAMIAgEFAAAAAAEAEQIQITESIEFRIjBhcTJAgZEDobETQlBSYnLB4dHwI0NwgpKy/9oACAEBAAY/AvwYofjxQ/Hj/wB5TJhUqpT/AI2XNFF9n7p8RTGIpnpz7zoFUfg+JE6TBCrdUzXV1dUVlaV14irKgVlgP4OYPzZXhKd2OolQKgldeJXlQKkM7y8MxGE091Tz91Uy6CbBVkCnhCpCrSqVUysrck5vzDy11dXVAVSFaLxKsarF85RNJ5NunJqqVlhIeFW8gc1FUL8wVPY+R8SrGqxfOVAqQqkB9l4VWIBeNlWKIrwphCBkhKHm7KiaMLhOILY7HnNFAVdlWNVJXhVIAqAZ4AnkEO/lTlaThPJ4U0YXAXGy/KVXzDSdAy+uehXjK8TFVFVTklF5OaI9ES904iqr1TTqngLJviw+q/44nGyrwny3iV3ymEqmYbFNKhTuxTG/Ii/cyMSqmCoqzFczwlim+JDiG6f4UfouIYSn08lVaqmV3ZVDjoqx4Yuq8QRhhDtdXEjDdqjKO6rdAKEPXJhfVlEP9shsnGiprlZPmZPDwlcXEE8EWE7LiHst/IO4AREHEd05PIbGWUXEU+OJ+6fG/dfaG+a7FQmI3P8ACEYN/o6EERFRQrjosUJWL7zaIRrgUMOwbOOTsUxGKFYoThXGPULhL05piKwweFVVJUC2lbI8wyoqqhXWXdU3V7oYjZMVQrDqDOsqKruv5kDyjKlFQPCvyxKvEN+TVN9oAeqr8QLBD4cjq8t1aV1UyeVbifEqAJzIkojRASHVOn90wuGm0CeY5YnZPCXCrBXPw1R0VSmyUV1vyGkQCCROyxCRCZVsiodkDsF0OQVV2H1X8J9VXyLmEHOw8lVCOHS8rOi6vRXXdRSdAIIg7KILEmR3Vr6rxKsVUxCpyqcthKue/JtOE70KfRa+yo6q3ZcNkRKqw9bpkWpiqjDFs6/cmLJ5YhQbrpquEl95P5FpkTpkqFT5q45TZPsPiH9pP0XTdGIxB1wl0xKaH3VU5HCU50l1dHeyB2TGmiaHXZadlWTQhXdPfyt+TbNabBNJlW6w4yZXW6FlQun+SP0VfRQuO6ZGHdfmy1CaB6pvKk5XlbJVbDOwNdTIrdBiz/JYYix3XVBOLdVQuqlBN0Qh9E+qAW7Idcl05fmjkkNKudhNhnedDxaOsVorlGE3C6pjiVytSN07vLhGijQ91VdJP/oXVVliaptym5hOTpnuumTotlZggqJvqgjgJBivCfqhHqKT8VVw+yNPQyITtMPZYR8lt0XDCU1ou6xHdk5VX5Lnm2mwXXmVTzdVEJGoIusUBZGgY1RhstVVOXA7K0MQVPZdURIoJgmJHutupVGfsoQ6cWTfTOw51UxunAcKpIWwVby6ypl6zuZMj2kKqEwxQkeq6H5KH6oH7vZfcZUgY9kzuVtK0nWJVKoFfD0ZeL0TkLFonEZO4F08NslvJ1C4SUdVUHPWey3TCy9VSXip2TvEYTvCvzA2KigiTM6qB6LhjAX3T3K6WTm2qoqLqsP3SsUQeGGrIFz8MMOGyu6wssMKGKNv5VaNYp3iby1MjNRUCtkvmO9kN5Flw3QxVH6gnHgiutwtJRD4dCEMRxdyo4CBDBFFYaSxaIIaKmlE0Qw46OdEzwxH9JdQgxUhTlVdlWIYdKp6+q0hWvLrzOk2ATUHry+q/mXCWXF8SnosPzZgUde6o+D6I7rEn+HC76MhFVzbQKop2TXCa4TdVhgp1RPxY4QCaNeJYfCH7oQ4oq60V01oNSm+HCD8kMAA7r/pjei8XyVSDzK8vhXWVQtkcIxQ9MtspCAk0P8A8hfafEjhxe6Z/dbhMWTCGndFiPRfZx1h/Uv+OID0Z11l3WIN+6NP8SN+oTBgGTxLVYVZlZ1qOy8RIVPM8Vt8jw37J8DjorHksnNU2m2y8Z/8gnC4gZFhCBYlB7jdWVFrROqqj91VlRx0xFWP/shC5qv7Vj7vN7Kplsq+ToFoqqi65OKAFP8ACibuvAq/Di9s1Fi9UKYz+VEQjHHvYDsh9oA8XVPB8QsrFupCxRQwBMKLRGTsuvRcUNeqZCvDInTbfNT6K/y59p/2tJ3yNFkvPighPcJxC3YqjrxJkHXDZBzxFfaRAQfDHuj0v0WG6GyrJy6dhL6qq/xO6ut83+Z3591otJ3W+SmW2QREEQomHsqJyX/ldkIeq/Stlf5K1OkjCTkpN3AK4vfKFed5V51lrKryunyUVc2konNGTbqi1dfyvkna9uysvDVaQrqUaiRaqLtIUd1SyeG6qrZTm1VeRfLotZf55+AEddFRpWfur2XyXZYvcKrg7pgaLCwPqov1Lh0QNgr1WKJsTsgXZVfuF/avKy19FTk9E6Y1G8qTtK+SmTRf3K+Wk7zqYfZO4TnD7L/KHWyhifxRMh2dV3eVmkYVhI7q9FghcnfQBAQswpWVgtF/a27SsCrMnCrlMmZ1ZlX3THmWVstm9Z2nWVp8Kf7N+i4/gQw91SJyUIcEVOitTqiT3RfRBUVS2yaKERqkHD3WGD4eEDZWw7oaytN1UFOR6qvyVGPWdZ1ioqEmFqKvzVLrE/ktFb5ztOma5HqqCVVbtKxXEEaIhrIN0kKLsZh0xFN1sZMaoVZNOoVDVUCDi6oAf3L7wGwhXFDK/Norz0lbPXm1VJF051uh2RlaTlUR/wBdMdFeVpeKVvJ1nRlstfdayv5OhadCtJWZVB9FSB/krt56ybCQvDyeLm2VuTdW8pbLbJ4ZU5Gi3GS61PovBK/mrc+06sqBaLVUOW61XhT0TEkZqKs7/g15XVyqSuqArwhX9lqctVuFTyVvOXWqstFUmWnKsnEr+d//xAApEAACAgIBBAIBBQEBAQAAAAAAAREhMUFREGFxgZGhsSDB0eHw8TBA/9oACAEBAAE/IVgRmmYdNEUh4Jv9DIahuxZGZDV0b6LJo2Po46GaFQ2IPCkohkvQnKHSC68BnnpRjZZn+pDN/wDjgIxMBnI8DddN/owIbl9ciUvqQs9N9C6bY1KNGhWzJloEgzXSsuIihWHQzPROqQ89dddj6d//AAQjAcY9jsaOB6HnpgWSNAQmZkw0xCULpz0PI4NoWX0eB4GFSHsTNoWXS4IagofgfRYyZIH+hZH+jZv9GTQhqMB9eh4QxvqQdMwJsZsRKxWsXTbNrohCyxyPHRoc0MLohk8lHY30mR0MWOkj/RkP/wAZ6YGhIGPAwFgY0ZDZNdF6z6RI0LAjbNo2IQt9GYiQwJgno8oSfc31aH1ND/TkN/8Ai30XRZY3RDaSYiGNdL6JiyughoiiBoiurg2LoumycEJYYhi6YH5Eexm+j6Inrx+jYv8AwjqxB2bRk/JgaY0Ib6N2KyDDsYtUu3gnmMAoGZoZFg8mzXTfRYGhhmHSCejR+cehktiY3/vj9OialPpAihiyKDdMdoe+jz0QayBJeRRBLC7BTrTyxcpO4oPZyR0aIsijQlfRY6bNkCk8kOUGOTQJMnwLYZAzSfoUkShl/oWf/gw6GPQhBK2J0Tkmh5Hg2PDEvl7MQcEhm3AwnYGmKOgdLbSR0jpoiynyNeo0iZQ4vqYAbCPY3ZLbeWHcMY2PASCDxI5k8MlJ2vaFinP/AMSWRmyYGpQj30ax1LfTk10PBdtEIapfAYlhaRIE2IKsXIjVi+g6BOVA25MRDSWZC7RFWSfAnu00MZaFuf4Mkm/LIMJ8CQEkRPmwOEiGIhnD5RsKAtqexN/oiv8AxXXX6no10LLEiMlQMtjQsOgCTKZJNN4kWothx8pBUsQ1zjYpzEJgYN/gyFexMUiGX4EtN+xdqFEVSIhIqRdG6KiTYk/oQaOeRi/oeUofKK/+piHfDN3X699Nn89MC6a6X0NGxOKCC1FmIJlDMwST2PNLeQeKURbQ1OA0omlIrybRWjegzSOwc6jtpCM+7IIagJQK0JEiKMZiNGGK+jzQpFxjHQiYszEHNpvZZvKE0T5Q65/nKVoYPuo/9+ERLk7Z8iO0aCfQmG7fAxNwDyz8vA5VPqFvzBynyx+nhyianHA0OERLyI9BBkNBynFiRQ7CDoa6YRBqhhBsiWQIXQ7nHScJGKIbMhSGVtyXTyYIvlEWjhZI4ItO1HWP/K/Al5VPI0n40T7/ALM+/k/YmfsqEuhdJjBHB3kW4Y2Z8ob4ZlyFIU2slIRsJok6RyZGhyKobogbjot9E+iA1LsthNPTt8BUrbM0vSY0EcmVUjGk9DH2xTiecJzhzwvDHVJH/gsi6RZFlfokuqIIoeB00l4JM+GjIhelRA09onVNzLMZTCwMkRoujtRpyNqu7lOGXiyIn3kEBsQ+hAIRA0I0IdECKoJFyQpORhicEOiUGm9sOvjY1IwgpJHkjP3sEcSrmEZhH9A5SXjlEz0jqurx1boodYg2bIfJzN8kksQZRqNRA6oaclIzzJC4pIhC6iVHIENeBiEtP+SRqLRIneBqE0BeAskQUNkiCOilWyJp3Z7hl3+BsDWS+TLGS3/JZM2xl967EqcRkW9bYprI0YCCnNqRHwUP0GsibxtyFHcitHs5IXJ26aMrpsSGMS6xA7F0nzb8D6oCoXbJlOyRkqxov+SHsDCjmyId2AK4+STkupuEhDTvBZOBqwDBDDalPBzI2pDf+QkJtSXkerTRCNuVXml+/wAFksTbv7+xMwyB/wABV8GreHr/AHclpFptTh0/P5HH8r8VRKm+V9iZlbJlt3BAIStCpHKJFCKzwTI2WNdEEjFBIgZyeEpl9J5EMxs0R9wnKlNJ2Mr9Ek9LDXRdIEhjDiy2NGYvQelPCGyEoDJ3I6dhzabyJHKM7IjR5CK28wyCFJtB3RyksvjkSNlIzJ5o0MeTgrjQWypqeLFqi+2NUQQmeJEn6j7HEHkZrt5EtT5RE600IEpRaTtEzNOJp7Lde0VCbV3/ALgm07jH3/wVa0t+xwLbSQ1X9hux91DkOabHlszXSMCQs9CzgTkIbEad+UIoWrQY5AiSCJMuT0iRBEEPJdKEz+h2x3KSSkl44v5G7zYl5h0I2ViebUCKdTA5hspKO4oOGyOvZ+3Cavsc2nMvDRYp5RMQ27khWjkqNol40FNOdEmRlGh3wQ0EHn/T/L7G49pud4/j4Ow7XgXRBKhyJFcwk/wT2tj4VIxrymvgUykt5YrmeBcrbIiCTcKKFnv0KWTlbMJussZoQlhSlSEugwiveiVUTTa8xsa1cGR9fqJ1Km5TJwte+jHRku5EoHCaNia7HgcKChv0WQnXz5IcDbKCWQ1qg0aEvQQ8BzFBa2q9jVJgknUyI0g9knTAkY1t8k4Tst3P2OsYSIbEJpA/KHPKZiGLtCRqUwSf3/IuK5lk4d6Joq2sRwmzJaF2/mLZV2G8DoaiIE44kW8Taydya2KW0JLlIh8mRt9qGhiyZz0C15EmS2RbeUQbCHwRPwIbg+UNBXBctDG66TUE0PMYnQieKfeSdr8kV1GlslrCiYKbLToS9BrydjwgV6cIaN1bJjKwSWFCFKuBbhZNpaFycLkQlDGGdiO5MklE9hO0OjxQ1gxOU8CqqfElvWHRAfyKeyPyXHDaaFhKGtT3/sYlrUgvFWSJSpOmiU7nBkWXCFqzUaQ0m1L5YZTPhFI9QjyJynJJcCIpGVd+lT049xaggI4TIixXKYtR/TyNsmV89JHTdGWujRmmWRphEi2hvAQ55ZPsz6iyxkRLeiJooHCWMajkcsddSNm8IbEtxZBZZLwTPJyIQ9OG1o4Ha2/kSp2YrJEg+R0oPyFkbDW8PDIi34JCIhyUldqo5HNUoX7/APUY0YUZ7/2a2EafJ3yqK0k2rM2yKce+eBjKUbrImuGajiEIrc2ElLH1RnbdiRKHo1XQkQUUF4iQgk0NqCUoWtiyjzgixLK5EmqKlncGjYlHRc6MdJc6U9AQ5RvJPs1TsXdmEy4LxbUIiWSwo9svKBH5NEcCyRYTsSnKfonl1RXA02xSMDV+2BVsa5Vi1Kd38jZKY0nlD4k3TJMrsLg+LV6ZDWdkjkoSa44X9Dt0qh4Pf2hmzCT6EXLURnuT/wCTQ7RUNLYmauWu+hviMbDYzKnZvP8ARIuQEbma7jVsOiWQioyzRnod9GqLUJ9EEJNiIXT7ghNDSjAriCW3wJqN5Dcj5HEIXJ904EsIYVao7EJFKfOkOf8ARZybUeSIwxSwNeuwl5E2NCZYJRl8jtTUi5ov9mY6bS8DkSRCZjZYFHaZEUJuWSzFOIO35TO7G4XJSDBLUDmlmDTFNWm2+PyIlNuiSuzEXI0t6ZxGkV8DWGFkUwWlw+heMEtMSMzm8fBTTl8irzXtzgUyzMXFdt8kdRyGoeEJGBck2N6IXQKyxlDFMoyiZHttkxLeJJiTZ2j5HorhiWiHiZT+h2lLgY+aK9mjgfCJ5OWXhCxJaGs0ySb5bGolK2TI3UtiXKk+xw/7Qp2XENWQ2zcx5HUhxMwJI3MOLG4ycOzkS1SpI8ZYzcR8iKY07+AyqzPZBFtaJxqxJTw/kcBzlSyiR2sNrcmppO5YsIpUccF7OlvsTJabhukYcJonbJ6VUiKK6JwK7BSdfofpMQYEh5oxEpDoVY8vZlJmS25CQj8k9I/cytNmRjGyFbeTfHBYP6JY+zZ2mu5ZxJEb+yf9IvAwSuNEEhfAXYfmXgjZlmpDcsywnLYQqfCchf5EMajn/aHwJeIkLPkSo2eV+5ISa/BGQ6l/vY207GJw8vZCD5TS5JJFlZ4Qiz4EsL2eFtb2eKvceC89fyXEVA9FgOkkS4Mw5ZYfscqQgo6JY0UcZEs7GXQ3Yxak2ckvkZcIoMGNfBTdi06wSssnBSMZNbGcmh5K8ihWLOXJCaBPPcSMsrInxgvWZKHCc4Z/WCrXgqX6QpJePT9xuVzUPTVfvkVbNMshg0u7Y6Z5LCFqKU9rI1ZCMZDEpwsSSaUy0hqF+htk4lqpU5TNwm8Y7jSUFhQ+IIEarJfyY2lueEZlS0vSCqi5YXC/lncgsqSP+zGJkgNy+hVEG+SZ6VUEoQiApTsj5Gp9mBLIKT9ixkoUcICtOtkQsCnAlpTyMbnsREuiwYTvRFL5xA8k+2ZX2Km/CRm+yQo3klgnHgWTQ81Lb4Gm0l4XC79xbSkssvUpxIkwcKNoFIb1hX2kuEZFByvhPPKkliFMyj/diDzQr3rkS6lGnYU5D2Vr8MUArO3W/Q3ZfJB4kE+L0YTbyr4FdRmaJaNZRC0hh1ROewXrSL/PYx1zsrEP8CwlqUxRbkeldb+hrNqzbnIkkhL6IFQio6NSQqE74Ht7h4ggihiRZejDQ8iL0PaZPYE+7wNQh0M2siITOWxFo7HjWEPjSyJ8kNlx+xwWFodZeC3ZGEQjC9cEE1TZOyQ8xtjSqm3haklJ/vIihupnYjRM38bFRtNM0vLQtkMrtzHt68ik5TEIxPEaKsaZQ0yn7aKjRucSqHrME8X+4nT7j/mPe3LIXjCqU+RtExWyaSXSm8eTsE4ZPgTPkcRHOsvgbtJyeCfogm/JErLNStMnUPREut+RPcxnpJIVkohpskt5JdEQJZqESOejJGifFMbLVHyQYS5IlINwITSaJpHoEyrCVodlOxZ49lENO2aYkT4yefohMB6U0YjPdjTqbn/rKpiLUIcSFzCQpImnBMXK2TtFJLNyKokpqUa8Vfg3vZ9P6YhxhROGuwxYG+nD0KWzcT/Isk7AbZu0g2bdrkrfuCkbS7QkmyLJWnKf0QpohKVjXEk8sjl8fQllRFlJi8ZvloRsG68FSRd50SMoNxR/zsIcve0PkNpqcnamThMyxCwike5IxOcFsEmX3EBsno4MKJhp9yLXksVzyMS1mTIrYHulhjU7RF/si3FdzcuEzFMVuEp7DU6wx4hMaJOZETOf3Cg1nsgwyJ8Lx/mSkm58hO1IhpfDILYTY8+hp/gW3NFBHgjEbQr8USDKSvLEqRTjD3kvRT1iCXh0UoV8G/EHZRkjnWr+XyZtv4sV4GOZCopjmxiFOhiJvoeRl9cMEtajXBDtuj1Ey/8AR8kyJBvKTFgRhXOEu5zM+W7DJ0WZJYiWGU3kdM0Q4HK9l5CfX8FRkTgQbs3Po5XJA2URR4WPsIboxI6dMrgzCTG5p+BOTr0WYYnWx2tN+B5jBLS0FZy47k2ac+STslqiBzjwKNeUL4JiG14GtdIpJs5ruRGbqqWWPFlJae5QlUSikymQTUYGoloWElBrYoulyM5KkvmODFtPAn7GzCtOlOuBE3cdnRA5QjwREiqbX+7j0rdzz6HLm2T6YlDLljHZswoNDLlwp+tmeRN2tGSQvQmEwpCl24Jstr/c/Q5Q3Bpf9s3EuVgpPAlkEvoSJF7kuaHyCGiSSzIlY+x3/kfYaF6fByWGTVWVwOdAkRuT94LMvwKFIhO+i6EvQxHQUER8ESoXJWUNx3gWDnuxS9tW/OhbbdSdhk2q/L/YdZT/AMQNJpUxQVhTNhK3/IZMX8BPg004x+eRhLg5o7JjwAqsQe/2Jqil6P2LK5NrwR8rN+TCicYE6RHRlH5FaXcL+RZCT0CV7kZ2IUWnDGfWO7a4RKtbd5/YIO7lT8izmjgzf0MW5pLhv+kYmnPJB7KZHSRN8EPsZ6PsWsM0/ISMgTZPRExlx/JHjpFckSw/lsfaXofytsx0v5GZ3LJehsuUS4szuew2cUJ2E3I21U3vsZZFzpwhDSTSan7G52NfYpTepRpFdshcma4f7g4sVP8AsOhiTQzxCORDw5B/4RNJUC2KkeBoV3mjsGJW0km0qM3D7IinalcvI5yuCY8ITqX4LIaCUjnkq6E1hCmZy+ChHekrZHKDcyN3eckwm7udCbSrdy1A+jczwPPjsiDImmQQzA+hOdDb0hWSdN6Io9EEOiB9w2WW16IdztFaPItP3MawSolOfA+/2N9o91twLUMk7R2MaG5UaQuxHayjn0NrhWTufBOtXv7GPO25yUp4OY/2CC6SnNx/cwwyqwPxIhBPbOXb+BwmZgnxH3Iw7FwjmSMvkmLAhMkljuK1I+/r/oh1k365fwPGIJdzsu3tqpEypMbCtESZJuK8CTCEovFx8EGYOaCX4hdjs34E5D4MTNE8wiHh9xT/ANCD7O3TELkg2SLQ5JJ6SiRtY0NPiuJJh0SiT/goJmXOBs0hzn6Q/wAihJEJbJmAo6GlwLH5pqzIHZYaW78D0CG2rJTwQpJUH7iBVFuxJN219FVlxJql38HBRKaUvLZmA00nsPAX/GB2IkiaIla4ElLBaltx+wmFgYaUjNM5lyhKkueYGnT7UokWkS2WMOYnhYbYnK/oUl5aehFwlDefke8y13kepSfJQWmFGE/5IStQNUiNMDJiC8BQTILUSxNNDbAXIknk9yR0gknuQ5OwsJiTZFbD0Jf3M8J8DDQbxh9LjD5FDB5GJML7PQ0Gj7nYjwfTSCNtAat0HlJXZosXyKppqliyNrBJ8a/Bc1bCefP+gcbmqvw1+RL6PLp+O7Gtk00MdFPYV/kyiTj3XybWjhiJgqE/2I3GdPYi1tXHpobK8bHkqYWEwWcQNNmXk29kUWTn/WPNt90uRTBhZpgRWH7k6h/sE+xPmRjS2l7NekaTLwsSPqkWeyPb5IpkNkpjZO1CILQ29Q9kLJt7HGvkhOVV+EfK9E3g2YEOIGFa+C+5HKC2UU/oT0T9nL9iO2Y15fgf/A44SfklSzyQYDBkanmHPvl/RA7LTMvLDkE4jK1495+2NvLolX+/oZ0nwfJMV5QNgl5khJq9wSm44TGYDdJsgamVaY9d75Elw3NiLr7EVseEOFXPBc7BTkjwv7xL5dhKExCaXyJ1bHYS4sKDu/BhJXk3L6GdH2bnjyJ+WmMmiX3IUiT8HseMdK4+y39EK1BOJJXL3RN0khD7jUKeB4Y+R6Imz+mbv8SQNLyQOQpOEhmCxGpQqz9ngiGKHoIpaDN0P2lmVupeKkbKWnXcnS7ZhNklKUpqnZMRpSC8BGpt6E5rtf6Rmco4exmbUQi5X2Y4pytmg5hG0mRaStxI2fLrGB3J0PBqdeCIhM7pOoIB7ZXAjaChgyK7IjB4fwRw7Cku4g1f4GSq2NmIaE020KD1HYtRIZo16wIo2iOGSWRlFdErpZ4MDnUPRHcytL5HBKE2aTfgj/gVzJ9qIOfpETO2tCld8Sh8pfXRi8DXgcV/ZZdoUNEeyuyGiICQpj6GC+cLGA48oZo5d/uO5batyJVUFw33GwV8BFDClmOwsV3OBYPbAHsc3z2EngdYfyXURKE5s1KeTyTKCS04Gzw+JGikRrdiZsoxhUKrU8n9nMUcsSvPwVafrBB3FsZQdu1hbCPmxmznf8kcSNU1suSKEHA1lO35Elz68icCc+xODXISJ2Y52cGxlFOBLaJ/yLIeEbP4CXciS8EHhieonkiMUvCO9J+iGKeWQax7EOrrvkrCf5gbP/skeF5H4keQ5pdfIluHTJgz0NLUST5nhuwrCXY/2BzY05UW/wBh8mPRfCFgqcS16Jao1rxCQ7yzGT54FRa/g/obTSXbcwkOk7sLIiWPKYxCVvnY3cRzRolbkGhEivkGOkt8A2O4rw1XybHzEWheYG5KdpUL4bXIS0vvI+2dmOwvkEwzNwgmeKsWU/IgSJTKaoSSW8WO21CbNWD6Hh5PwPpWoRU/xAl4ICG06ZPBLZ7G5RBGIxCeGHgpoaZ+cjaamR1/wZy/cFIiC2I+Rr0IC2t/AnrgJol/0SnQsu/RGcF4MOQ7LIst/JIa3ke1F/BRESo73/IkxdWEKHThWJ/6yNqkklvvwQWaSbwWg1L4EKG7SgwP3LV/I2yf2NmcoCjC9iIkzOuDGMThMCZJtZwNs0gTk0qu09kmTkTKFD3iBHRF8kCFHsio2a7oOSiPZl2G5E8c6ge5yjvohZVLYqm14GpWpcJIp7wEBAxVFYJ4FIGVQ1omWafXZ6I6ymJtHsjBncwTuY5iBoSiILIce2Ov7HHbcBvUyuwonBnCEk8P/ehzyN7/AAGT7MSI8fBE6D8p+RefhCdjbeWnfyNdvkYU7VUjMaLkaYn/AH8jW5TI4Gm1W4jwJmNLaj9xLk9l4HFSW3plAWk8iWOmSKJb7jH9E3IZPMaIJMUp7CJFfwNdCltGI6HGMrgYL0R2Iddyh0fcGyZtfY554Z4HGe4T8aZU06iQMk5Hi0PxSFfDweT+SIKJExkHmF7PrsSkTJA3V/AU3afFl8sSTuWSTjHvQ4f0MbI5Man2fQ+45Wsig4ToojfweqI8dMMfRK0mQwpGIy/YbRexzgXX2NhcQJ20pUyNrJ2S64y8isnroqLw70SQwJTqBNau8Ijc349jTVt5FWW1pjALEGUGum/gmcP7ZGqSOdvRJmX7ErApHz0ZJfJEc++nsjpfb4ND8k+RC0Yx5MMtoQwSuUbD0Yi7t9l8t2YrS9i1qPRT0b6I8jBJ+wh4+D5+ReETHBKmZHLwhqUvHkSTwJS4JqhpNaEk8RqXHwOfEDeZRkLMCIY1mSb5kmzEaavgpbTd0CAqXDo+lS/CrFkfyQaRCI4gwzPBHbos+C1gbnp8HsXjpNE9LIfPVh07g2hshrElMqCXpaEtHqDtt7IWV8SbyeWiX2HWSeH2ROmOWKYqcSXcjzJDRCQXZRjwbFTJhw6Z6+yOWTHJDley7/glpvZOiEM7fwiby2xLwiPB4oSXA64EcjlL0y9SjwH3NC5OSOhUMoa4G3z0kIeYlISINrpn0EvbIXRa7CG8DhcfJF5+lBwoSWkjsyWCfIke38kBL3PBlNDisafgIMr4IvPyPeBvdTh9AXsO7EGoEhmR3LOFCQeBJXJ7I8DncET3JLDfyJ6/J5C8/RBRnDZL2NkrpgyMtEt4JCC2RPEYeR5MYgyJ9PSILPGTD/gJ9hY5ElgtwQQS8NexU6eEX/IJc7FyF2JsgsqvZxNvCJbf2yZwSPsy25Qcy+WcCJa+xrxJ2ELmjFJFGQ2IeG/ghzgQxI9kEcSR4GOsbH3PBJDsTOiX+zuKBd/QhIfRUQiEIZoheenuUmYweyOiSuM9meWb7slLLf5FfQmHFv3P9nI+S9FsI8s7lQjk/IxIwkfJfDLnAtBLYYJ5WQ0+w52yVpjcjUMENUSJbKPRkSuiFHStkpYM4TJa+TO+BczIdDSOiuw30PAlyT0l9+qKQ3OCBDRvrQ3eX0kgyhwS8Eu6f2yH2hNlC4PlE2x6UN6LyZwjTx6EyWSkOSZIMDcRoOwtzhiS7GS7Edy+CG+CuC+hIlgcifImJaMhk7QkKGH2RIkxqdj/AEMknp//2gAMAwEAAgADAAAAEKyyW6yWYOVFeepJsvfi7+/39rvgQ24z8yq3Nq7Ua9X0MRaR+qRmniW7HCRmazBO/utjT2zV+cWTbZlJ0KAOxYgWoGUydoKPMutxFx0eiKDQBZrvmDJjOop2wWblsgXoTXu+s6wcZjGjpZpSqV46rhbIxEkpm+QNTV4lUlFARB0MM6VHZmZD58NE3/YnvRUUTZeDgL5ckEK9A5JHqCcfJj+/t4/nzZeWMCkgXohqFrlUXJgWJ5M0s9IO1uEbdorLzAyfmuhBxAmnq5PG3XVUrsFdU5XG4OxYTONHn6V4ZZdUZWHzI0WZRAv6Al2ZLBaiT2Eig53meTbwplE2gMoirLLtVDWbraZOgKZyGWINyizEONA9Vm9EvC5gGQYO0/GDsln9/GFHpyuNLKk2nFJAjPEIto+iasPYflveqhCjrwFvLNOC8C34AulC9/JrejXdQ4GlxnkhjuKJDpPA0DdQMhmoLYN7heMdjR32rYqssiGNHsO+OLOfqEKItqywUoaNMqGDSQBZqkECMMp1W71411c9MxeAoHOSvkvxQ97wQbYpGDJ2WfWXdgBtDBBb5dsOfJXvvmKVO5UgFXe30c39m9xNvNf1TLmifNBMH7mXuPrJF+uduLOtzZYkeSdrO3Rcg6QsfQgUuNS5arX8V95NlqQ1bWfENf3Sj0zdhvsOda9EX4K39p1rSLAzUsOFLmDd82nghugtu+GicY0CWC0M5/8A5YUZNeHBQTD7kuZx8PxddSr0ppSrfczuwGXyHw3UoH2nG0Veunc9X8mWDhzCJ3QndgvA5721mMH/xAAiEQADAAIDAQEBAAMBAAAAAAAAAREQISAxQTBRYXGhseH/2gAIAQMBAT8QH0LDw1VhD+Hg+FcFz8FwQ8NfLuMYuC6+C+D4o9wjsMf1WHlbHoCRqrgz3CEmxfkQdmL8JxWHmSizmJUhfiV6yfWR7IHgQ/yjxYBeIxfVrpCb4foJfWNHbLDFLse2hBB+Y/2G7tjFiDOx0JdiM27W/i09JDR0N3SGRt9G7tifJ5Qh8STbiHGxdrv/AGN/6w8LhOK6eV1cU3C84a6aaMT1gncFaISlQyqRZKLPexdv/wBH/m/6NTXxQ9LK0VFTFgjQXQV6RJoR0ExMs9GWZFH+4WP7Bo2NX2Gmu+PZGPWuc6CtijjH8Y+xWVi1EKgi2hEmMovfONPlIew2hF+DlNDJKheBK7EylmloYkWoWG8wuy8bhE3CSH8WMmiUCNxKa40Z0NYx7+B9kEjGN/Nm6GPfwYxtorg8t7IIWO/TJ4otomB7RnZLYu8wmFx2U+e7hS/wTCKxjctE2KvRCTorojZs0UhIdjWHw7HZqT4S2H0NfRXRDGtlgzqMK2OVDzYtiHQriEIMnFjg+aLqMgo6hKDhbEzWijjEJaL8Lbo2hJwg/wC8TTIQaQxOKRJ1iVQIvA1Q2QQoNhtNglQ08xP4pxf4IQgjBoMQTSFDJQRWhbN6G3dHYZ+AyZRdjSZUd4IYeJmDZB4ox4g1hY6NSNiaWiDhFkLF0IQEE9ieUsZ2HlSicE7hkcuLiYaGoMxh/aPP2Ouy3k0TEwRp6P6CW4SlWdSW0R6EVq5p3m8QThAS9QZPYkeiQWFHS7O4VW0OEYtBImiQ9kfNUhCZpUUuEOjfYlqCR6KEZa2i3JkxGQnwafCYWhPC+FRVhWLi/FogiPIkXg3MKK+X/8QAIBEBAQEAAgMBAQEBAQAAAAAAAQARECEgMUFRMGFAcf/aAAgBAgEBPxCPHceGPXB5PuOG8PB/J8BHA/0nj9/g+JNkeL4yOD/geoSRWPky2CR+3rDFn8N+eLwTbbdzZoIS+zePhfIvwL7kKPtgO7vw8Qf0S9sj9438kK4FkC1nULOyQ2A9sD5HrQ6ltti9STZnfSZm9PUP8FMdh/bA+sCA+QPosPkScZe+oMJiZgiHLma3bdJb16h9dId898fpE33OE4ls2QcuBpJ3asC+Jw7mMgGLZNkNp1Pow/4hHs8c8T3ws92NjYRO0++yfAt3uaakn3EPhONthOE64NuyinRgJ1xnhpe+c4zgveySjF0YiyscHmpHS/FLS16cPJxnb814WuzZyW+AONtZeiwnok0vDZdmkHoy26Lw+rJvvIF3NDbTg8c8ACN3K0JB74HhskNvDMcfjk/Y4PXCMsj+Z9WI65PEI692OWPXISs9z6zxPJ5PeWdh3hfHA9XwupDFtvGeDPGG3+LQ0sc2ZuaQD3bGzfk1fth3dK6O5MukJjqJscHIyNw/w2ntD+X3MfyGIfaI6LRyG9S6yW+5zjYYYzOvI2FjzSz1BXVjLsOsge4g6mWJ9knVmNeAw/lvlgcO4RCwlvgtoYXphIhpdW2hLq6bcS2H9ljfA22eMPt/5fpY4aIXAUKIiz0vYtHu9WAy6+3Z1HbuCQTerb9IX1weexxkMcbDMtMveLHNsm2sdxJrYGyyffCQ42PXgYsk2TIjLQcvdl2Q8DDvuxCL08Xp6sjftqy22h3a/JQWlwuyXqC+59Z5v44PEeNmVt+9lTq7fUkluyZd2k8FhMY00ndG2e46LTzQ4265yxPdnD/HHv3aTpst8s7tj02XnvGnJvl1Cc+vVu3cmyZxv8MbXDHGcZ598DkMyl04LZZya4YsPHG//8QAJhABAAICAgICAgMBAQEAAAAAAQARITFBUWFxgZGhscHR8OHxEP/aAAgBAQABPxB083n/AOMAcf8AxTucw4xGzTDCYGL9iVEKI6LLD6hCIr/+DVHEzTpZmpqxmBVTVC+V54hv5JqgWsS4LtEldQqMi4tn1MrWYNTeqYi8HmFg8PzKt55hC1bQXE4Vjk3qGk7z3Kv2ySqzd3vxMCy71BR+UKN0OIrA6lY/+7huYJ5mAFVU3tU/OYdf/LvPGo97vM4ccdwM4aQzfEpMTZO0GcTj3PTcuivcVTmy9RaDuGWOzMGPMKh4gW39Qq6HUW2YyKQ4gqZlj1Fz3E0PM1cq8XiLCzvCQxWcTGqBslVWZQbgtfibVTKOIC24DA7mAnUDkBIgEdRBLT4i5dTS69vmLQINY5iq+SozjUTHc4/+PnP/AMOlx0KkC/UMYfOIahohiDVHmYYHGEmV4x3DiuJSbbJcB4nlEFPmNtvib+McimVjhiR4lyl/M0DTEHOI1daiDniZWJsllVMix3LNoKIIJ3cclOJeHGNRQLgWF5c1PslgxBbMdwUObZRFXzMFQ+qPBFXsIxTOsHcBUt1qKmj/AMJnVDE2M7n37i1tTuUqiKT+oKdzXicf/HQ1Hdv4l/D/APN8zP0l6ViUd/Mu8VOq26jasXMMQDXModR2K2TWNX8Qu3cHH13HTRNHuMLRFtIl+f8A4PJyPcQh7Jl+0OM5xxNlAo2qYZgrEJ7hxXcaAIVilbIsGYsmJZonOQYdxNJ4i38pVQ4Irgu0iamF+yBa2sP3C0DQOJZw1ysWs2WeJhqqWGyI+SZOMTeTnUaaWDPuPuVdQJ2R9n/xxfiImnHmF4nPuGI1VwFrsxMMdQLA/UzbMZKZoXzDhuYwykYepqvuJY9zeGqldGyNrVmXZKmwjsL1PROETKaI4nmZdUTj8RPxcGRlfErKZ1NhjQUW7ZxxzMqeZYB0TFfxKA4PMPCOyCnlxuqYJRXHGMyhXimc0m3UB1x5m48EWs7lB5liKkVk7ruVA3L1MIyeoZ9S8eJ4nOPqWfmP/keSCnGLuJcKogtyx1mU6MyqkdEFzYcjFgm7OmcfcWX1kmdRaJR3/wDBWJApXU4JnlAOMkywWjuezFzSqBRO9uIJr6lq9x1HQjpC7iKdYhx3KArUHESpenhiq/chauypi9xBuvMbMs4jeU2zArHzHOOoqykwv+Y0hWEj2kuOPU5zByLxLv2iSPJX/wAfXM5M1OfMdeZeur3LKsG6zBt+ZyAipXADMRE6dTA4d28xCqIfOZdbFxNTxL7TK+4DA2wLSMAeYEIxdDB7AM4o+40BRE2P/wACqVmDn2mNeoaHmJkhsQ054hwJkIuRqC0Ze2MsW6qaXzAOp1LCnUqV8YjkLrOZVnSHDF5S+2DSLd9cQsUeKmir+I/Uu8LC6O5zzOPM7/8Ai4S//hzeI5cQ6M3L/Ecma3OD8Sr+oY5l0nxDvFOGPiIq8OIcEYUvc6mOGGjnmDRyswOmGodEV354mdkalVZmIy67WnzM7xnmTwOI4VldlrOp+CiIOq09MwcUkrmX2mxh2S1pTS4lnEppfEOHqJmILiZeoCpFUUPmVV+xLU7wa2KPNxXoeIDnjM2KTkZgWFWfiIFG0trmLaFMbNo3Ct/uIZ7m2cTHc1HU4n8QjByMeagl4yRTUSqzZHhhm5fi5hQ5oJphyXF3uWFeYlu41VzcYuZkQVW7mj8TdfJLUiLw3AyfcV4Aw9CrYVMZ4QS4Fy4l1BjNQoryIwLbcZeYYUeG6mUQzMGYyXLJXtH2IW23rMByn0QGQ+3+otebzaKZD4CYPEcMUFIPRMCR0M5/kQKE3oC48Uj5oi+kLnZ1GIK+SZtagxvQ8bjS4qh3G6TqU73Hdx8y8zb5qcM2TmVjzPufqeJrPfEN+Yg1wkQfSZXuaRfM6CXRyAkzb5vjqJ4iKDuFUR/uWXDmbMubZWB5mAvPEFriDGPpNksMPHE2SFAdVuYX9y/y2TOOB1MWuDEdEuRyJ0kHGs/cJoCuhlzlnghG/lbyzh/5i2QgWVe4CXd9wBwvuB63hzZg7ommp2tw9XHxCBEOMyCgAdEDNytGilLEFjtiNhR2ZI2FHi0Mr3503CtRyFhgLDhMUxGriMqOwZWMczb1Ojmd+Jd+GfOJu++IYLHEXPJE+pm8Jj8kTb7jv9Sni5X6hgu//gp9pdWjtDtxDaZ3Cy7yxHI3EGeWoDLDG1qZjj6bgCiL5IiMVwjr6liRMn5fuL0WrVxTwKzRxUMG0KHXcRMBu41abL6lrtGgckt2xe7gVDfCEYv4dIjYB5rLwPwW/wBTYH0Iu2Lz/SHm9m8w3VeCokol4KzH8EVM8TaeIOmJkhZWLNTCZCxzMDVbiQMdhi+n3/SEajU6yA/Eg6V+uxxQW6lZG8RxdRMeYbnNkzcXDETJDSVVnO0KxfzPLvibQx6cRDaA8RaDi5RMuJuT8tTON3Dc/WlDlBri47AOh/qNu/xdf3BnI/5omog6B/uX6H5CVWk6Uy8U3oh0ZHXuKh2tzAgKRHRq27KhiaoCwsnCjUtuQ8mphktwxi1aA16/qO8lNVqEFeIy8KzCvBAsQz5yw0EtUv8A+CKNRpHqW1LVIp1K8tSrDpFfjjwntlUrxLqTM8tNwCiWqxqW/eAw/UASp9x7lwLpXD5mov4H4Yk3LpiY/qYiQj/5DJzHOeYtq99THxucpfzDYQzXSbhjcwdsEwfN/RHjh4H+4xxvgQKk9kx9wUYJfuppIXgTE9R9JqEfARopryWZeHFZBdsQ/SonhM5sjWi9oZohvBm9xGatgT3Fapst/mJg+DLiOEbmkg/Ecg0jVFNMKqOOIzRhiCO4LkrMShqJQNw3cYh1idCAe4atyxDBB6YNaStuVeIQYW7vTmYDmyNc2YkzbniFnjBrO4OviIObhonzELQ60/0xl8MqT2T8ivqFcvsMPpiUmsczTZ3Gr16mniFxbb45lmfxOde/E5vmde5ef+TuN3gZYLHNmPiXJm2DaiWtkC5OPhN17VcGoHmErF6ik4PiWg+bZQgXiAU8xrrGg/EsRYcuokpVll+5UnO2ipZULpV5hmwgHTzKKuZVoDUPNviV5Qhl9MCnDCm2XiILDiDb4lV+IUEqpDtAFSlzBBiKBmAK3LVlaeIHnP1KEBnmZxzKPVuCUXMNPzGARZFIC6dgvfqFggNdPM1n0U1LO77YglsepPmrSSnehfk9wLEJyXBHUpm2E+PmOTzL7rUy/nNNlvUC+ZUWM9zm1MCdq4GXlEFcVK8pmJTFb3KWdwaXysQIr5lQfqZOHOW8MYTShz+ozAqZO5lwCz1MhFg/UsiiaGXoD1KNMMFaQCahKBszBRTVQa4lHbYQaaOR4ZZqyrP2tidA21xbLs5KuFYw0Wfrne4yegYdfj7ipgj21GNrcxe4SRKqMl3KBzGGUwR2KqdQmsK8pKmjyd8QwUWALxkvfiyZATUDQVg9QOTxQABWr/EeCbrq3T1/yKWyJF6zLFpjxCsKxK0I88REs4y6uI4TVUc7Ay9n0yn26tf8kpEtZMg/MQsblWHGJbfMxvxeJTg31FbqBmndXjEq9NTQcxbQ5lUXMKEytSxmYqZSaLgXlBa/UWVoEoWg+BCQIKnPmW3lfJ1DWjsqiXM5OPzKarKV5jB3t+SdEfhgQN1FCuWIO5gGVchLUvBBbeQxysZ+pjXTr2+rP4ikV+ReP91MSzl5qYQVkllOSyOIrsBsa2e+fUpEXLWazBYbL45lUhPEcb7D8XMEtIbQGDzTCemEHK6PzCN51ave/pr4hrszMYAyX88eJSVaLrhaz4sY43Fy8+JZWyMjMVGpD5chECwy2cnB9w0mxnNzNkiFXBVIWFRmWotlqmFWujCW4rHZ+mXqkcFZ/UFwI61q/wCTKsHmVQ0zK8a5Jx7luTa3dzOd/EpdKKgZWKnOpWEFsVfUq2NA7In0JrbV3CgwWwX2XSY8S9arH5mAoacVNotOSYRqzIvEOopwghQ52WAldMdwYVnLJX9MP3A6ri8cqgcJMvo+0K+uJeWKtHdRa566ZsWufNOKekbP8RTxWG0hJVxwzPgHMQQ3ivSKzYDxkfplghdfWOX7h3TMexA7cP4Orlq+Ui2BNulw8Er6KdMbkssw+Im7SpuLU6AfBTbq7d7B5pBc92WjHo/XuOXFGjqiPld/HmJXwsB+Qdt462QFItLtLqK2xAGuX/LAlGO5cxszbxLgm9/MTDB2qwDWOd6lYk5U+ghXEamRU7kbqXWzLtPuWkWPZLZwyK5jwUOW1nmANJylj/ybYfq+tQKu9uaeziGSnqJ+NMLG82cQRNh7gIWGd93DYkp/qN9RcxbAlq1KbuMagSyZC8I+2PkwLtfF5g2SuWiShnkWqjLxZnD9x0DZTSbjqrBa/wAQKtU5JfhR1xDHFvPUV05VGFTGQsbOfcM0+pwnzF46Nh2vZ35hVIW0Ol/DRKBRFfj5gi8h3z8dwuVenTcyXa7KhoCcrrncXGEQeG7lQbWGBWDxiuECvBcSbsDPeZTGOCWfs8N6I8mYybbqc8uN7pP/AGH5qOaOxOkp7+rHodk4gDhx7D8NcOh5dil9mj5HcVBVaUmsa+C3qWYyAP2/N+77lCzbQr09fiJQUALc3e3jACAwCnI3/MtRdXLr4jkWUXQYhEHBfiViNbVKhLH4qARzdS+BZqXVfjmXoZfEV7IU0fiZSLTtJV3JVuKepdbF0Gf6fxMEgKLQTdkQLeCDexghYX5JyJU1DYIY4iFkjZLzTANHEpwSwBrmXm3FaijWrdex1KgS3qoJEIOCEZCgYtuWCPQty99Jdh8RJPlNjNVS+dktsU5yqoVZVu61G9L3V215mAN3Q2gDBswlz4ZRfZY5p6g3LJ0omyu5hAnhaJUBOf8AiIrk70jKcgC6WmpVntm8MHYgLVWf9IRKsPhVOM8YFjipjYPFFfsH9obfbVjQwTWALfAhxYRTZo3r4WovoEBYb3+Zkx3Nqv4fePEuSwcnrxX5+RlUtlbZsf8AkC0EVVrT8fzMOW7HBXX1FRmDKpt91Sx6VwACpfMr4HN+epYAbXv8oUC6ETEbRKI8vRAYCbpBmkmD8QZs3iFQTNRAFXeL6jJhukYdiwcwS1TpruJsIrg7WRoojOh+IJbE7wLn0j6ms/3BcmHgon0JKLuGZmNk31iB6moCy4gQ0TIDmVuewn7/AJlrGF1YsCwttOYrNxDqDWEb9RaEEdJuP6q7X9zM011uJZwHFuZQgir4wSgCkYdK+2HkBp1fuN6jdFrWUk0NUjvuIZaYHxKn1Avp/wBUwbycF0jj+ZWtVgacP1zxUVDKmzHzFYQG7va5Yx0w8scprYeTzFTOt6H4/wDZSIAkHOf/ACZ0QVfOZTkjFas2L62iihuA4wIX7x9TChgYOLouKO1FuFBPxf1KIoKL5x+n8VLvH31ilwOkagGyMHRCq+hhLeC0Zp0/onyQpLjl+OZmvmWE6VkB+PEwVNOXVxUrMZuoaAs1XMuHUHWN/wC8SgIAu3MveoKDcIsYUSxrarYrbi4ilHdeIt4Gwv1mUY58RQtwut6ZSoJyTti5EfGxAweDZ8RBqsxk5eppMCaPUQLFC9y5qB7YWTkpR1CZPQkzLRlw7SvCBjMVWg3kWUioXDHlllLKjXhy2uo20bfN3CN6NoogNrFwvctOEd3plBLxW79EaqHoP6hURo63HJagZrglqAD03Z4YyqKaU4iYyzhc8zCFIn2CbTp/5DQWg30meTwbhmpqfhMWmwb/AOvki8KJ2X6ef3CSA3YcX/ZBwKFlvv8AiIcX9XL92S+42HwI1VeD9QQ8RXpoviieoNzbg3ZYfVzLUFadVn4v9S6IBd5G/wDP1KNxnbdRSYNg+dfm4sz73lp33ziA9g2jEeP9UHXIGiAdvL5j1YbMELx+IUkppA/8leEAvJUKMbRRRxLWUNCzKpy5il3HXMWWdOEZVBjmYxDko5jE5dbllRmtvMbYlUEAsPbcIt4ZzAqGSXDkYKsXNQElDkDFZUuWN2hQrGAbzCuY3fMabLvSYig2BxRGolpol6mRX71CBVg81iYBWr1DUSF03NBx4cRaYjwcxi1dlGZ4gccvcyDZwQmB7NxyFkwWwPaicBdzqKcUxqoo+G7h5vkzR4JaC0RTIzZ6z5ruYDR2zQf95gId5Rw9agwbVoMjzU3VSxcr8dxcNd0mK8P8SjkFGzS7/uG1HHzUI5M2q3k6OMQqgiCiVbedIn4jlBLFDByPCp98SiNBlGY2K/D6mkr3eoPOZfMBMjSOvi1Lll8oUhnF5rnMqraQj0nMfdVlPbHz/tTT/QaMtXXOX8SgFkcStUaMW5lAhr+yHEyCag4Hk4hsGFLTC/73EHRZ75mMXdSjiXuG+ZjYY7gXUHKqzMDVWyjVFN3HSJQYDWr9wKLFO5lRKBvcIaMK76iXrQzmYtGMS4bAwCy0Khdw2xAdwqkOFndsYzcyCw6suJas4qUrbGd7miNB8S9ahwOKgpaCnhlQoNhg6J8VBCWeQId5PTRXuIYSXmDYWVnZiWWlH9QC60K769zIpDzUoC6+ZovCsVz8wVspwFrbFaBH0P8Ak8cxCXc2e6fj4lkBpAvJslmxFJc/JjoMSjHboda4YTKI17TqmH3zjUtOufoH5+odaTMMN7PybhWCNDHG/wAcSsudN5j7lQzBygXp7/7FoJuk5EvXduPOJtgZeK+HGxMcyiBSJpuz50/iJfK/LARo611jUt0CWt6Uafzn+oTXAN4WuVmM9zpll9/uZXn1BQxjgcvqGLPlFftrS+6iy5d1EDQf7ccbUK3oe/8AMujFyCb8/UqMhEBTTu4GgjgBxLUeICIy1OXzG1AMVuBlEU8IIVyJuLqvuWWTxBDkYggdPPmATbywDcJq7loHaXFAj9oceI1xR7Rgs7y3EFsjW5bY6R1EiKqZTQ73iH3l1aVHR0Yb+qlI7HKu43Lbbqv7gFRwswf+xPyaOBAWExfJuNxATVuUaKsrnRMGyrsYWtja7i4X6RSBLgOPnqIFufcTRZiwm13WOoAfIS9ShqMZAdfoPx1G6+mfOWIR4QM08Hn9+Y1OQvY9I/XxNwHBk+t/P/sPaBUqjfYycXmaut5sP2B/EKuOgDzaa4c3E+AMFkWz3XfqCgwUWnp9XFepjxVo7OPmBTgJyjQfivrzE6XIoMAOH2Z8sQAho4tOu3cZo8DgHIeStvPkhiijoLVa53rlltnmFQZ6MExCuZLPo7Z3a2OO8kxPRd3s7+4LOzKc/wCf7UCNUIGV1Gl36l28xeGWguyOizdspqYg1aWFd1KUtb4isXqqhQvmAfkgvj3FbBZbM1mWNWXWZxL6gFWiqGWcA6yRrC7cLLbrkOCXXldYoxBgU2N1uAlZV4lPADzxCQG7w/8AZW2CsvltPMvsg5LgIDG1KtNHxLLZlPxUoWK+2JhdBzyuCuVDYVuWqRaU4yyxhAuaxZtI0EG+j26mQBRwHnxLTknOqO8wjAzUqvwd5qVZAXbL2nGj1xMAeAsI4pubAd5oJ3ZceVQNFYdWdefMsg3hWhlObIazDlLdP/SPFCq23LW+mLByTPEX1r9Qi3ACVss1h43fwxYzxijVoPxXupS8C/VNubz038Q8BADa2fk/qaSisLwNnpzLmAwB7PxiOigK5jk1ZvAX6m6bUWBDbfXEfeawWi3LUYJXWuVX9fMqiIuAt24zUYW0hoMq3wV+DzDawAWgv3AJDUbqiUd4mR5HUqhddxXUXE7MxwrgiKPzEADv8Sglc9RGmdMHLoMwlnhCmCUtlwigzItx7h4gK31G2lkjx1M3GGccxYtU17mV3i3DuUCpZypmENCpuMEOeGGI3Ac2wFrW1V9EWaXKy5x0RWzjDDN+oIBQ6a+IhplFr+yFrhBhQRoKrtvv7jpL8hgTILQLwOsQlArBfBBCi+xh8165lGssgp4GMvmZtLLkYXxLSq0Fh5zTE44i7KQXF4vN71mZ3hvYSwvHdX7jILVADRi+7qrl6Ki6qrY96f6hC9KDe+TY/TDClFBZgvNJuDdQNDlX1xBSJdIY1ZTvzzCvSxp5vse9RBip7VVArZrk4hgcomTHoXXr1BBws18hBPVX7mV+AWg3LXWwzyDENWmlk4Fes87gKC9hSlL5/BrmVWQtwHLJA7OaxGB4LQDduH6WXxBBCE2Yu4x2bVOfuO8BDk5weuU5fUAjsEul+4OQxLIZHEN5fc5FiHvxCgz+ZbYcXALOI7aheiCCZ5j2lvpZI24bzEKmKLZczrEUr6hiKh+YvyhWJXlE2Zh24steOoNNZbZVylHKcxMgo0FZjVYLy0ytAdFEPk5b1MFlVGbIkAc7JXQ5TDqbIFmk4m2gOatfibugwVm+/bF1W7bOZY4avBKogrhp1A1QF2HM1QkFBV5/7zK0QqTh8Dzn9RxRuyrOl4OjzAJp2tJftqEIYC4rtrfrj7jSZTKU9lND5xrUojNVopJexph2uOcajFtvz5ErPqaLS9sCsD5/5KFgKA44+P7j+hKvs+wN+puggcA6vF+qeIAoDupV1mskTroQ+DOuIhlaAVWTOHVhqXrTA8EVfsa9hKoDLVdrH8N+bhgMQ0U5byU/mJqQI83tO9fEKtDK3Cu81rHyvUEizGwoG/At72GNuE5FgAzwlXszRorpiU0GXQXXWY6mrM0HPEvYwUTBlmvhrXcaF7AW3YO8Q1KXNI1Ehd6lWW5Z1UNDaZqiCuDMfB7tij9sypTHcaLeNTYMaGIVUyY1B8IFA6gGYDoBexcRS7HcRNrzAHxTR9Fxa1TDcanl3FgrVzWH4lo1P/nzBFgQawIrUpvRX5jljTayzUW8DVx1ct6X5Mbh24StdSmsIK2WoZlFsh31Dc1iK8+CUOardF45hwlw7Y8kXAKYVMl/zFVpG73nXeJSWpQTyWuV/wA1MFs/+l8/EEBAqhkB2zEam2Q/eLuBajGl2dLDZeLbmU7VCipDmiqCtm2SKeaCrVYtL2FE6rYQKItnAYPOJaLhtvQd417LI3aoq4p2mvdPxHy6Upy/JeQ8P7jYCe0qNrS/MFX4LKdfm64YgDcCFXW/xdal1oGTYfX3T6ZhqVR0Vr7lBQq5FewOBiLqB8BlJlQdnGlq3j9y3UVgbquaPbevcKLESrQc5R3fMAO+Sl39bqKIZgyRf6/ZBYOGwsB0cuMe4hSVNAvqyBBHFFYW3uYjMW8RpZc+INwFzStmEVsunLHiWpo2e5VarFQF+0xKjWrmC+biy3BmKLctf6hUjTGVuOSYkY8RZwEaxz5irULrGrIBqtLraYV30miJA7Dz7jeGBt46oiMArhc7/UwDzUBzKCUHNTb7YlNwvgz6JeEsz6eozH+RuDtPDg/3MTS70mMsboYuaLz33ApKeCSu8amDdC3TATdaCPRsx/5E1MqZFKqtei2vELT3h8mV9sFf4B0C1+6JQ5LTku1nx/JBCjqkLpByyYw5u5oiYMmGDBemLIVSELSgTJoRVOXxnFWksKhrWxzwjx3K1kONLfXUBALulb0l/ipfjYG/suxvcJ2gXAqu7F+iIjipSy10Xl8VK6XUBkPF9cxBJsHFIa/mFtHVxKMHAWtKx9xaqMWK9mWPZCs5ezMdisRMOQDmAoShXhxQ173HTKyUtbtVvxd+oUvE91mejcNQAbWr7W8ViplGd4Lvdazu/TATSs2PfshaoZ6goY+iVFiEW2WVltwRSe/BLK9rdw0AuiFcsQIbuXvBUcytrqJR9kfp6jY4YkbVZkAk4NwjnRySjVPDTFlYYKHkcp5+oGj87Zr/AHUxteC/Pb2wYCRkeiWoVV1GJHoqiLAUNqdyiFLMWxtABblW6hmrFLLIygLDgf3LXKNW0lZtpwUECKDz3coGumaT4O4fLLQBv2e/6hGpioOLzntwHi4HDSpbt/3Mv6cAVZm30t+4rUnKE3b68V9wRy9uGrRHOuGPF0sH0UaByZJSweVTNNtthS6sugHsaGmKWF94ZVcazjm5kFyxGRuw49QBcxB3vVLga2EyiLTlUxsb+aNyhjbY5+lD7mZvNOA/KprNjxyHefxArT2QH71+INVaJTri6+qiG2EjSXY/NxmcImOM8f7iWXbNR4vj7jNeBXH+vZaxX864awL/AD+ZsamkKu9GT8ymFVLpy3+B/MOhFkwoGNc1n55h094A4vq1AHtWWQ1wL+efuFDYZpC6inCu6IgooeWYH4SYn5GAllMHWqeYuAgqsofAxmIG3fcQQFs1KMTAbII4qIzVzepyCeYi1i6hYJlNJF3a7HZDSw/JGbl8GmPIRsFsCCy4RHFynVhYGPPzMoLrfRxUCBaLPZE0TIZNmOE6cFGCVsuG7zm+/wDsrQXgAfzUK2NlxK0wOVNRKSz9zTkF22seIQlY8CvOf5gQakyVZt+l8RtNjK11a5B5mY9hKwX+SX6EEybuvrELFitAoHOXEohVX3cOH5yCU7p+j45XKMIwGmlxfePyYlaLTka1jVdPEOJ6FmPLZsud4+Il7xaHqc3W3vce4NLAs7b59cRCId1Qx2UecYYuYEIuDrDVftFaxypW2mX7v5judACcKFfuEFNuPYn4IfKC6rDz9RK74sPEBxq4qBiFKWKAWhuwqdymQguioqA51C/19iYLbQ+j+4JIFiTa7edVzHxZDe/kAaGrxweo6s3Wrzl2sx4CmHtZ+33xDuZ6XMKND0Q7jHYYFmadkF1n1KV16gohWIrbdvSFMF5xA4/UocoeIuX0RuIXR1GwAlnZcKF48+Z2fiNnBUS2SMhlEur1Ezf9GXLvRpjFP6GAMOXuAngLMx0Ky6puXRBpstXogFUjkP5izANLTzKC/gES9WzJc0qC5pq6uFaGFU6m5AaVzxFgBab1zKoi3kug9xFFUFsWnmLWJjqqqv8AFfLEqyqkuAOs+7+oAlEli48K/cw0gkO6Xn0VeYcfIQl9uo3KPI4oVxzwB3FHFnD2jyJ3s0la0N+RCu7r+fiKK4lKQek8ykguyGx/X09/MtfW5wGjsbPzK/aHNBUx0u98bl4vgyGhVk4sw0MKdxcOGueJbFNY2tHBiWIqNhsvZ4RK2JBFNbwDljrCsLbVMZrebKOmV9DaAfRBdD458QmDH4uzWs89RlBSfaW3YbNHwcFShsKsFZTGOfmMhW1iWvK0F4wfcE1YThPhWFu7t3uYqAjYp9bHWBEmWbcznNoPygyV2qlbecFPhqYJa13FBYo3a+452YeaiJjPVMKbRH7mXNQXHPUVYUJzJfpVujEDNjBXd3CMs4+ZnDmK5XU6K8QIoCzkgCXZ+biOGj2UwanTTF4L94ZJYFThmTkLw3DEIUpsI/tmG/8AFxbSKvKOnO5e7lyyg5ussZTQAapggeNZ76gBTtsvISvJTeMOGLEi7zeT6lyRdZQfxqDBs8U7+fiWSg5aUKM/mEssotWW5v8AFRrCZwXCFw53UUuhgDnOXxkQ/wBULGgU4jTPB1pccwWLHD9zgZK/5LSAhKn3Wfu42LVKs5vPDm/sIHCoswH4lifrNLOsrDXHXcp1EV+wCiusfBBBqK1nebW0pKdjrfKykr+B+4tyByGqOn79anF6dBdHBfr7mjASLAzg/GfiPLUWcJfJ1H1KkfxdGXk1corTstog4o3R135gX5aU64CzHbzLAQcAPtYPb6gmaAzdZXgqbIgUT2jl7WNXG9Q81s+wlM20Uo+YUJKrRj1ZY8JBdiWDjpT+oEssQwZWUG1AYtUXfzMTFRN19pRz5QCl0+54wfNwiZZ0JARQs3KwB8iAWInhlnh7CVcnEo4UOsxbMJjqMXXHMsY09jMBdvtHDB7Sge/JmKkEdlYhaMBMmMIUX7CRwybaC58txo/cpDRdfsvb6hy0Y61EjCt+fU5cBgDVdQzAFusXLUgWt7iKBbqjKxAqRpxTiJcb1m3RKVtA23lSpziULyDvx+YhXWiayf1f1Gc7oIW34ozef1CEhksudLUxrlfUvPZhK3bNHjRK4tlhbSgVB9rQ9lcMxoJcb/EpRkYyv9MsKIKiw9uc/wC4iIkUGha6rNuRblsvN1KjlInOuT4iiRovOHIXP1iJic5Z8dY4+Yyw125DOz88+YRYNE3kVj4GBXNuFHdlfKQJT5bqdFdB/wBht+8C2tu5vV8nGJcs1Ao/b+twYyUB3+NxEchEPkFtrn17jdoZDh6srnr6uZNmDDvyrc2AuiHGq/4x7ujYD8DvxNIMjBX6amRouxb94jJrdcmoDZqLMmZdt/MpwqnzzEivHUtiqWMsvHZLDkeoICZHJlnJvOLKiNpw7ZrkvxBvjiUNfTHzfGIwBkcVuOBeabH5qC7V7ZTmnnxA204iUYV5mRBfFqZoDwDZ7loGXlZl0wagGLD5f6iLO9Yi+Vloy7bGviPRzwbYiXOxuk18RSwoqu46C1VlhkUlccQ10S23YmWtsa9dTNko5dHH7g5O4dtNz+fmH2FxVkAG3rCffcN6pGDK6Mr0+CZINKAV4EK28Yzdt0S0Foit8AL9rB2nFgWB4XNXwyvjSrPzx/bF4M2BLr6/uAiwgOYuabo6xbljgahR2+l8f+Q650MOLa/J+YhDBSrFI+f7iC9dgKcUvrf4jT0wrwoAqvP8prU6C3VOKvn8StlByN58aL9S5ww2jbt7f95mGYXMnxujPERaqtKAV4G39xN5curcYYPuatQFMpnL5c8/iVsNYwZu618MKQI0U8fC/wDICCld2oafFy4SgtEQ/MyY9BXHzuBcTBg/zGxUEOixKWgHmKOS/CLWA/cMm67i2oV6F176gON+SJdrf4hUyEQcDpup539TLNhHe7Y0UhKlVb5uMtW8LzKFHpV+riK1jpbfxAsrXvEwgRfCY9wsSyaQurGtqxYfaKf3MsVOQq/qNjqgX+4YFY4CqlS9o8MPViuM5+JeHpVBHzUzgF7k14Y4Brw53BLxl3bMMYTmOPccAeeeYIdXfH3GqgKlNi2YgCzRu/8AN/cIlFrKUgAPmLUL6IW529EByp0XF21LYtTNYtTNfjugVXAp7KAyUdgXwsSh7BvZ00KcdSqOrtS/GE8SvXLTPyyx8YeAyMbcfS/M2+PIgx3s+WOES25XrJdDnZASNMuhjtuBay3YXJt6Hx/EIvavYGH8fmFShwUvN9a/7Ka1W0UHsf65hMVUar5ywzocg2D95Q/eFa8F3Uach0rtvEtIXs0rL6G/X8x/Gf8AMMwAeIO2hHWzxEoKQbpH80xVC73n5iymANr4nCnWcfU143w7iHQ4uWtDPUthCBWsL5SNYD4ipTFjE+YpyX7iBxb6gR4fmJu0RRw8ErWn2ylo9XMQ4O7I3hKeUV8BLGQ7r+UEw+Q/UtWX8J/MVbKpzSr/AMjaUXlWkPGP5g1eWo5lToUMd2J0HNxOCzhJl21yxbc0PBcwq7N4B/ollYji8fuDXknjKW7hqbT97nQKrUPQwtOGrHPxdn5jcpaX/Er8xW23la+IuJosaNsW85+2LIYoUFlLfJFt2FGWkiZlkF7u+SG6aG0uZmEGzAgHS0q8r8kAbcO0vZNMJVkeIN2m/Ca/2JQ0pVyg/uMNaFHJBYPVfwBol5uKiYEdbM7cRkshtIPK8dcygEYt/bPtq4CAS4A22oZ9ZmSNaR0f55+ZSbvdBPA373zcBFoKaCPoMO8MwhXrl7iBoUIUflv6+ZoJu0Cv52bpl3Mnk/5KwxIwljeLtgFUx8/e5VWBWG1PmUqChgLP5zCa0cYH1CwyuBr5itY8Zhc2p53Mfp6ll7IeH6ljtqGPQSu3fqDJ+DDRjmshU0vDxBlFvzEdQcjLhW3W2NzT9CDgec4jIXhYqe4NA92v8wyojcf+mNhEOnDLcEDYl/pjVp7MpV19MRXfr3ALHpef+ygsWUWBT0xEF0OaVLpZf86agn4QBgynwJuoTZS+1fq5RxnWFfiAxAHFDOXHiWEp3ayjj6rcE+vBHaxuvgBZRXbFHzg7zl9A988YqXDASWgntyVbzZaXFYgcvBbF/KubcPDA9UKIq5UpZgyAHEZYqUVq/M8bdWH1iIA6ItHwOviMFxVZRPBmHrxFlRm6+Zf0ZF3x8WVLseWo6IAUfbfGYgraxTnON8TMQaEVd7rDRClSAFA1Xf8A59xgZe7F/iBU0wyt/n1KVuVqlqAlpsc2R8LFqXRvGjuMCjQuK7lOtNgO+PuPmwSeF9kLQFnHdSmW11an8zADDkBf7gFZmqKK+jH5m5VDjBfjxBcnLGGJV9EGcQVbPNcSxm+whC7gHKX7YNuPhEFwvxE9EwnD6lWrE7YtTGIHRzO6/RKgEDyMoFLr1SEFo5vj+5c5V6TPxUWKzdWQ/UEc0Bq6X6l2tONCDGDT2foiXkp7Vb6g82GPv9/xGlN/CNXUwvdGULJnhGxlFmr9TCwD1efjmNHJNrz+4tqt8kKFIddzByk4FJQAIJZoL4lyWiS6L4fFcSjLMILK3vjuCFLUHFC6727ljUbKitbg0tfHM0WVl25i321l+DEzDKgZyUB5y29+5RedNkR4q8PqDS8wnwVt+I9araCN+45BcCuytrYG4mg6eLx/yDUY5FBrtuGoZcBv1dfdcxjEGAFfBeLlXEqKBx/jEIACyoxd2+25mCK1SI/JYx6IG6ED6NxAdIoTD/XEVDhXWzz51Ae2zlSrHr/dwbjm1Yeu4m9QCXfsZ+IsSoRscjcW0WrnnN77ijpRhy/klnaxoRqPboYtbCGCAUuwDHn/ALGsAcFQ6NLF1p+4Ois5cv8APcKE3WMMThDOkhj1rsLiqZeSWmhfawRJjs8patSwTJ6Fy4l6+CC6qE4rLQLq8NfklBRXuj/B/M6sBw5J9spRtu2XxYRGFG+F+jOWF4C1nYfmOs+gFfeJW6Je0J+pira8Vv6uUvX3BZyPOP3MWHDrMxiWuQfuDWFvfEdobPGyOGVHTLpVh5iIXk4zv6imyHkJmN0MOX4mASskpmvmuYY0CJVhnVnniP0AXm9M1XPeYE1ChHAefDwfzAAZFtCsLW8tjQYK5irtFSCslNfu5TUuSiTFA9YMeIWuQBuWX+/qYwKZxXmkFv8A3zKNwracri2Su/iiVdGNm98h5VE0WuLADa5y4PzFYqRxm83+peFk0hfsP11HSw3bZ5WHnqATIwbcNZt/xN0ZdLHhnC09krqHZaHs/wA81Aij6Yzf3BlaMAj9tP0QEIMvFDtXNwxLBlar7d/+RYGkuuhXHGfUOjN2ea/zKFsHAvKGh/MJHTdHS+SWl1c+fWP/AGPYgau68wAQrkabr/cdRWmAKmRX+SCqABVZoef9USQLwFq9YGmK0LN3pH2mpc1BizZ7pc+Y9a07B7lALzzLNVb8QEqh9ygYbfCdy9Txge4McjpKuVHrETIRrK5uUSqolWRfwEpLJaFZ+qpmY94qPeolCq8UIilSeKH4Ita8YKfxLRR4F/a5nVLyf+EA0NcqT+Y4gqelyzF+1xIqwd3Hy10R8GHUzVk+IKcI8V/cCm997/VkYIwttRDRsUPoKNS2ourU3XIVy5uMVsQC+b/AlKXRow/ADLjBppOCmfhznHiEJKG9ifTew3fUIjSnZUu1GP8AsauqNsp4cKq/HxHZLCA7y1euTPXid4BqpT3e9wW5Ow12Lf8AEPcbrv4BfcbNQwFpxnO47+MUuOry7xUFYSAlDab6D+dTG0A/7GfPmOAYqnOutNIwkgbbQyPn6mhAOdg9W/qBCAqjgrixz9Q8xVgj+P0yorauo+gly2gW/wAZuKFs5Tb2f1EVmHNn+zBIrO77Nn+8TvRQgXjhmCK8Ib3LA3aFOKvonjfLq8FPsh1QFqlKdS3DhG6zv/eo9qMo4y+KlvgNCq+LbJa+wS1Fe+yUAW7Kh9QuxfnM9J8SnKJ4gt0volOBPcCFE+KhnI/dzI19Kit2BfLuZF2MC5C+GoIXBjHBCOVlDeZgO00jX6gVtV7f8EoIVwjf8TlFXmmj/vU69tAXPwBFKxvImX4Y/ug/hWIFZppinMXaFPFpcsiXNJFUF8Wqr+oksyfUQ6eWx+oIMj4lIdHgtCufCui4rL/yDj6pb4U2fTHoHsM0nYJZnV57igVdW5cCaMGMUeI0TKJsXZWPHMUsu3BqikTbVBCopUqG8x64PDHXsUzpT7An2nV04YaOd/6vHmXIzUXQ/j7gzgIClpaLeNfvzGvAwdw55HwxquMtAv8APMoRwBqO22+HcTkND7fVxvBl4G00+5XKIopZz/EZTVxRg4yVBoAUKarrHDMkOHa7vm/5mwM1LJ4TvzF1rSmFX7/8l1kGC2fJp9yh2fyPVOfUw8HbYRiXIuvUpDTamNmiqgNZwAba/n8QlmMWF5riPJrQ1WL/ADcu6x5PNNiNS5+2CoW9X3XPmVpqLABe9QmcJbk+UYjv9C5JptzZqumIinIS7zcHrEqw0eG4AsZPGOnMoDz3Vwp/iCUpx9MMrFRbLwiRsIzvIvDX3BNCisLPywjtPcXalz1EwKYzVCK3DyA+FiXo/gYpmutX/wAmUta0oL+UjwSLpP4jpjsEIDiPCl/kIlZR2h6AchW4VuNbtmHAGAbLcXxBYuDws/mIIC4qo+tRzswz+0AEsOqAjzqXQqqxgHkIrhcobU/5eOWEn0hc5u650fLuD7ws24O9a1BKqUFrSnP5gFYXDXHtef8A2DwUo3kFH4V+pgUYjXIeufkgCVBW+stf1CFzXdHWzJ7gECRDfTf8fqUoVVB5bT+I0FVbaub4iAo6QdcY6anNEF8y1yazKYYALqY4znWqfFwCgaLVbDxd5Ieg9MS+F1fn8QAUZh05UX+uhlkNmxSOLG19Y/iJ2l+IXpDRA/cPSzopZ7IUAF0InpnzjEXZQrcfIxKZIrNm7MGzOaWA8iJ9S3EbOBAAIhxLoyXQCodr/aXHCTA1AXg/MFukrmBTDR3dMoF255WCVYXrO5TZf0X+bgzdw4Ui6S8dR+xvmm/UbChxp/SYmS7dxEHpGiBQH1QiBpedl/7qEwthMKU/VzBYcnX/AEiEUWu1/wDIBgVdKit2D6Qrqj7hCioQrnSf78QRLop53Ajavdplug+kWFFjq1/mVlHXXH6hS4K8f9R0eTklhYq4q4hj6uHEw92jShvylihe85t1FgAXFkzeD3uJNtASaxxB0I/s3nxghT4VA8dL3AaHYF3y/l+ZWNORMn49ywMu2z/HiKaObkvnb8xsJhhC9uEjV9BbOzfPzDJCSm9rjDhjLYVUVT4fPdkt2PqjA98P+Oo6KGAMOPdR1H83GVcPDg1nnog2Pbix4R6BBmd/aZkQr1cFDEDFv5WfUwF2XwTGT91KsUYDkntXKOdVxAbrTzK7HHqVb1XNTTXzjJ5eJbaPqOQUvJxKYzk7Yi0V5i4q/Fwh9gYYIPLzL3sB8RyYDnAhEFazVb/4g7wrha/CYNtTkUxXdDGgOfuYLsOHL/fUb0aTkB+o0EoroxAW4FbDMNcY84jeGeu5u9PZmNFkgtY/tlVaB7JeqF8EYNntxM0HwtUHOse5pYDzqAM28bYIsCr0OIWylJSYZRq9AIfDEY1SWMMxMDeCwYSjQ8f9mWx2aYdJM3SX9x85IGnvUoswVU6v11AnVwtOL9cnMVkElWoOR8wcUAbtWj5HN+eYsXo3xvmCoB8m4AoD0RKa3Ye8w5D8xsYPAz/cveUfELZBfx/EpoF4F/MrGFO41kFVx9T1D8vZKK18pfjMQWvUBV7e5Y8N+YZaIb9PMFzT5gdrK9b+5g20RDdvzAKgbH0MtSy/CVE1NDw3f8TMk3QAfoglKh3aE+yL6PS6S3Rq9q3+YDmg9UjLer6tipkr1dRYw/y/iZMN7xEao9m5fLPBzc5LB03hnCt7q4C7aeqqXGGjm6mwCnuA5aPpgqX+SBZQUfSFL08A3DSFN2f9Ikp8Kz+IkEHfBZ/Y1QVw/LmGKA8BHM8Ws2Rq4ZjpB4cwBpDrco1ji8WfiUdlK00rEp/dL/EMnIPVfiVDCe0LiNMDwj+4O627Z5Rwmf1OVVzgf1HgX8v8S43eIVCl+bgzZXp/8gIyZ9Qgu31iWM/hAXmzxLMR6rAfc9nxAur+Z0A9x4MT0WYaAe24plafBHYyecRQwDNgPqpaAi3Itn4jSXRy3hizZXt0llwp4/gMoZUcO5pBThpucx+zJABC3zTd/EqLNeEqoJd3OIKyx+cv5jDFzxUoFrncFo68moVSQ7BlnOza4mYXG7ajjRHGTE5fepYH11tPqWNfSIqNntX+oAQ9QtT9WMRBw9zcSABiGAGsA7gn7MagPBC11pAOF7ljI/aFGj4mLR6ShdnyotAG++EUltnogQ5EUcoX4Ipu1/mYwA+ppKJ3U000zIf1FL008kKGPiA232kAhXDhihbeaMRfK79RHp9x876nj94rSHojhd4U3kvqJS8nnUwtA9Sg2Rb1mBjIX53B8XFFUpLXNHyIDsPaAJlRJjd4i4IvUsgQu1fSxNydhEgReKp+I2tX4mKwUe236iujyMQnFzzVkaOXxUDXT6f+yjSvgQBLHzMSAL6iPtRr8y3fDlSt3vd0D1ewCoW435dwBuqd1EOg+mPiOjuWrPQ4hZygmBXGf5geQnFlSxspO7il4ZYbHqPMcQfD2W5ZtA+dxDBT6gI3YX3UbQWl7HEvRakMtQFjReGsxQAVeKiByBzd4mSrXkiub4liy65FBWqOXMEct9TJ37YVhD4IqxuZYAazDgPuZrgL/tmHkeo/D3KMjblGAvLAOVhKHUfJfnEpTKHxGm1+Y2mkPMGJ0t7IgAdIo/UezOhEpkBOAINR0damGA325iCl300jzUeiFhXsKfuF1+QsgnSdEEgq/aDK2l5qWhgZ4g8SrlgqqL9SpBK08yqTy1kiAQ6OYSmvRLlBgB4qiVNW+DMtYFTsqLVTxiHfVKXFfcEUHxNOWMobIeYPtgIoD7lGX4mBxzwscKFfMocvUpfyMTHQ+4CcoeszYUv4nEHtlABcvlh1EezqVCgUhjZClrDzqWdl1MLKcAiLfPyyzths016lhVZ9TIO/EstfiPuOMAl1liVjSkxecfMUOP3KeB1BLwBe5g/3EmB4GcQp6XMxr9Z9RVkPgufiEYj6unRcwMKDwhAoK8S6LKcOYgtN6WIWPwS/HMAobrq5kZr2yqXtUdA19RYUK7WKrS3Bl7J7Zayk7dxLaj1FJhY8n6jbt5JQptXxADhL3cRuJhGXq5bzXu5c0ads6VniFNhPFzFWPKHEWE1QeogzeInj9TDCJ4Yi6CIKaHxF/sgRq7hdbfUpqwgvMRWf1KHfwS7/AORPc//Z;" vertex="1" parent="2">
                    <mxGeometry x="30" y="113" width="380" height="304" as="geometry"/>
                </mxCell>
            </root>
        </mxGraphModel>
    </diagram>
</mxfile>